<mxfile host="Electron" agent="Mozilla/5.0 (Windows NT 10.0; Win64; x64) AppleWebKit/537.36 (KHTML, like Gecko) draw.io/26.2.2 Chrome/134.0.6998.178 Electron/35.1.2 Safari/537.36" version="26.2.2">
  <diagram name="Page-1" id="SUf0zRFQCQ6d0DkkOM1E">
    <mxGraphModel dx="607" dy="3537" grid="1" gridSize="10" guides="1" tooltips="1" connect="1" arrows="1" fold="1" page="1" pageScale="1" pageWidth="2336" pageHeight="1654" math="0" shadow="0">
      <root>
        <mxCell id="0" />
        <mxCell id="1" parent="0" />
        <mxCell id="x249CVGgQLwnqaqQMpfh-71" value="country" style="shape=table;startSize=30;container=1;collapsible=0;childLayout=tableLayout;fixedRows=1;rowLines=0;fontStyle=1;strokeColor=default;fontSize=16;" vertex="1" parent="1">
          <mxGeometry x="2480" y="-1270" width="180" height="90" as="geometry" />
        </mxCell>
        <mxCell id="x249CVGgQLwnqaqQMpfh-72" value="" style="shape=tableRow;horizontal=0;startSize=0;swimlaneHead=0;swimlaneBody=0;top=0;left=0;bottom=0;right=0;collapsible=0;dropTarget=0;fillColor=none;points=[[0,0.5],[1,0.5]];portConstraint=eastwest;strokeColor=inherit;fontSize=16;" vertex="1" parent="x249CVGgQLwnqaqQMpfh-71">
          <mxGeometry y="30" width="180" height="30" as="geometry" />
        </mxCell>
        <mxCell id="x249CVGgQLwnqaqQMpfh-73" value="" style="shape=partialRectangle;html=1;whiteSpace=wrap;connectable=0;fillColor=none;top=0;left=0;bottom=0;right=0;overflow=hidden;pointerEvents=1;strokeColor=inherit;fontSize=16;" vertex="1" parent="x249CVGgQLwnqaqQMpfh-72">
          <mxGeometry width="20" height="30" as="geometry">
            <mxRectangle width="20" height="30" as="alternateBounds" />
          </mxGeometry>
        </mxCell>
        <mxCell id="x249CVGgQLwnqaqQMpfh-74" value="country_id &lt;b&gt;(PK)&lt;/b&gt;" style="shape=partialRectangle;html=1;whiteSpace=wrap;connectable=0;fillColor=none;top=0;left=0;bottom=0;right=0;align=left;spacingLeft=6;overflow=hidden;strokeColor=inherit;fontSize=16;" vertex="1" parent="x249CVGgQLwnqaqQMpfh-72">
          <mxGeometry x="20" width="160" height="30" as="geometry">
            <mxRectangle width="160" height="30" as="alternateBounds" />
          </mxGeometry>
        </mxCell>
        <mxCell id="x249CVGgQLwnqaqQMpfh-75" value="" style="shape=tableRow;horizontal=0;startSize=0;swimlaneHead=0;swimlaneBody=0;top=0;left=0;bottom=0;right=0;collapsible=0;dropTarget=0;fillColor=none;points=[[0,0.5],[1,0.5]];portConstraint=eastwest;strokeColor=inherit;fontSize=16;" vertex="1" parent="x249CVGgQLwnqaqQMpfh-71">
          <mxGeometry y="60" width="180" height="30" as="geometry" />
        </mxCell>
        <mxCell id="x249CVGgQLwnqaqQMpfh-76" value="" style="shape=partialRectangle;html=1;whiteSpace=wrap;connectable=0;fillColor=none;top=0;left=0;bottom=0;right=0;overflow=hidden;strokeColor=inherit;fontSize=16;" vertex="1" parent="x249CVGgQLwnqaqQMpfh-75">
          <mxGeometry width="20" height="30" as="geometry">
            <mxRectangle width="20" height="30" as="alternateBounds" />
          </mxGeometry>
        </mxCell>
        <mxCell id="x249CVGgQLwnqaqQMpfh-77" value="country_name" style="shape=partialRectangle;html=1;whiteSpace=wrap;connectable=0;fillColor=none;top=0;left=0;bottom=0;right=0;align=left;spacingLeft=6;overflow=hidden;strokeColor=inherit;fontSize=16;" vertex="1" parent="x249CVGgQLwnqaqQMpfh-75">
          <mxGeometry x="20" width="160" height="30" as="geometry">
            <mxRectangle width="160" height="30" as="alternateBounds" />
          </mxGeometry>
        </mxCell>
        <mxCell id="x249CVGgQLwnqaqQMpfh-274" value="" style="group" vertex="1" connectable="0" parent="1">
          <mxGeometry x="2440" y="-1630" width="2160" height="1580" as="geometry" />
        </mxCell>
        <mxCell id="x249CVGgQLwnqaqQMpfh-1" value="author" style="shape=table;startSize=30;container=1;collapsible=0;childLayout=tableLayout;fixedRows=1;rowLines=0;fontStyle=1;strokeColor=default;fontSize=16;" vertex="1" parent="x249CVGgQLwnqaqQMpfh-274">
          <mxGeometry x="558.672" y="1123.92" width="131.3472" height="150" as="geometry" />
        </mxCell>
        <mxCell id="x249CVGgQLwnqaqQMpfh-2" value="" style="shape=tableRow;horizontal=0;startSize=0;swimlaneHead=0;swimlaneBody=0;top=0;left=0;bottom=0;right=0;collapsible=0;dropTarget=0;fillColor=none;points=[[0,0.5],[1,0.5]];portConstraint=eastwest;strokeColor=inherit;fontSize=16;" vertex="1" parent="x249CVGgQLwnqaqQMpfh-1">
          <mxGeometry y="30" width="131.3472" height="30" as="geometry" />
        </mxCell>
        <mxCell id="x249CVGgQLwnqaqQMpfh-3" value="" style="shape=partialRectangle;html=1;whiteSpace=wrap;connectable=0;fillColor=none;top=0;left=0;bottom=0;right=0;overflow=hidden;pointerEvents=1;strokeColor=inherit;fontSize=16;" vertex="1" parent="x249CVGgQLwnqaqQMpfh-2">
          <mxGeometry width="18" height="30" as="geometry">
            <mxRectangle width="18" height="30" as="alternateBounds" />
          </mxGeometry>
        </mxCell>
        <mxCell id="x249CVGgQLwnqaqQMpfh-4" value="author_id`&lt;b&gt;(PK)&lt;/b&gt;" style="shape=partialRectangle;html=1;whiteSpace=wrap;connectable=0;fillColor=none;top=0;left=0;bottom=0;right=0;align=left;spacingLeft=6;overflow=hidden;strokeColor=inherit;fontSize=16;" vertex="1" parent="x249CVGgQLwnqaqQMpfh-2">
          <mxGeometry x="18" width="113" height="30" as="geometry">
            <mxRectangle width="113" height="30" as="alternateBounds" />
          </mxGeometry>
        </mxCell>
        <mxCell id="x249CVGgQLwnqaqQMpfh-5" value="" style="shape=tableRow;horizontal=0;startSize=0;swimlaneHead=0;swimlaneBody=0;top=0;left=0;bottom=0;right=0;collapsible=0;dropTarget=0;fillColor=none;points=[[0,0.5],[1,0.5]];portConstraint=eastwest;strokeColor=inherit;fontSize=16;" vertex="1" parent="x249CVGgQLwnqaqQMpfh-1">
          <mxGeometry y="60" width="131.3472" height="30" as="geometry" />
        </mxCell>
        <mxCell id="x249CVGgQLwnqaqQMpfh-6" value="" style="shape=partialRectangle;html=1;whiteSpace=wrap;connectable=0;fillColor=none;top=0;left=0;bottom=0;right=0;overflow=hidden;strokeColor=inherit;fontSize=16;" vertex="1" parent="x249CVGgQLwnqaqQMpfh-5">
          <mxGeometry width="18" height="30" as="geometry">
            <mxRectangle width="18" height="30" as="alternateBounds" />
          </mxGeometry>
        </mxCell>
        <mxCell id="x249CVGgQLwnqaqQMpfh-7" value="first_name" style="shape=partialRectangle;html=1;whiteSpace=wrap;connectable=0;fillColor=none;top=0;left=0;bottom=0;right=0;align=left;spacingLeft=6;overflow=hidden;strokeColor=inherit;fontSize=16;" vertex="1" parent="x249CVGgQLwnqaqQMpfh-5">
          <mxGeometry x="18" width="113" height="30" as="geometry">
            <mxRectangle width="113" height="30" as="alternateBounds" />
          </mxGeometry>
        </mxCell>
        <mxCell id="x249CVGgQLwnqaqQMpfh-8" value="" style="shape=tableRow;horizontal=0;startSize=0;swimlaneHead=0;swimlaneBody=0;top=0;left=0;bottom=0;right=0;collapsible=0;dropTarget=0;fillColor=none;points=[[0,0.5],[1,0.5]];portConstraint=eastwest;strokeColor=inherit;fontSize=16;" vertex="1" parent="x249CVGgQLwnqaqQMpfh-1">
          <mxGeometry y="90" width="131.3472" height="30" as="geometry" />
        </mxCell>
        <mxCell id="x249CVGgQLwnqaqQMpfh-9" value="" style="shape=partialRectangle;html=1;whiteSpace=wrap;connectable=0;fillColor=none;top=0;left=0;bottom=0;right=0;overflow=hidden;strokeColor=inherit;fontSize=16;" vertex="1" parent="x249CVGgQLwnqaqQMpfh-8">
          <mxGeometry width="18" height="30" as="geometry">
            <mxRectangle width="18" height="30" as="alternateBounds" />
          </mxGeometry>
        </mxCell>
        <mxCell id="x249CVGgQLwnqaqQMpfh-10" value="last_name" style="shape=partialRectangle;html=1;whiteSpace=wrap;connectable=0;fillColor=none;top=0;left=0;bottom=0;right=0;align=left;spacingLeft=6;overflow=hidden;strokeColor=inherit;fontSize=16;" vertex="1" parent="x249CVGgQLwnqaqQMpfh-8">
          <mxGeometry x="18" width="113" height="30" as="geometry">
            <mxRectangle width="113" height="30" as="alternateBounds" />
          </mxGeometry>
        </mxCell>
        <mxCell id="x249CVGgQLwnqaqQMpfh-219" style="shape=tableRow;horizontal=0;startSize=0;swimlaneHead=0;swimlaneBody=0;top=0;left=0;bottom=0;right=0;collapsible=0;dropTarget=0;fillColor=none;points=[[0,0.5],[1,0.5]];portConstraint=eastwest;strokeColor=inherit;fontSize=16;" vertex="1" parent="x249CVGgQLwnqaqQMpfh-1">
          <mxGeometry y="120" width="131.3472" height="30" as="geometry" />
        </mxCell>
        <mxCell id="x249CVGgQLwnqaqQMpfh-220" style="shape=partialRectangle;html=1;whiteSpace=wrap;connectable=0;fillColor=none;top=0;left=0;bottom=0;right=0;overflow=hidden;strokeColor=inherit;fontSize=16;" vertex="1" parent="x249CVGgQLwnqaqQMpfh-219">
          <mxGeometry width="18" height="30" as="geometry">
            <mxRectangle width="18" height="30" as="alternateBounds" />
          </mxGeometry>
        </mxCell>
        <mxCell id="x249CVGgQLwnqaqQMpfh-221" style="shape=partialRectangle;html=1;whiteSpace=wrap;connectable=0;fillColor=none;top=0;left=0;bottom=0;right=0;align=left;spacingLeft=6;overflow=hidden;strokeColor=inherit;fontSize=16;" vertex="1" parent="x249CVGgQLwnqaqQMpfh-219">
          <mxGeometry x="18" width="113" height="30" as="geometry">
            <mxRectangle width="113" height="30" as="alternateBounds" />
          </mxGeometry>
        </mxCell>
        <mxCell id="x249CVGgQLwnqaqQMpfh-21" value="book_aurhor" style="shape=table;startSize=30;container=1;collapsible=0;childLayout=tableLayout;fixedRows=1;rowLines=0;fontStyle=1;strokeColor=default;fontSize=16;" vertex="1" parent="x249CVGgQLwnqaqQMpfh-274">
          <mxGeometry x="1393.13" y="472.37" width="262.7" height="117.2600000000001" as="geometry" />
        </mxCell>
        <mxCell id="x249CVGgQLwnqaqQMpfh-22" value="" style="shape=tableRow;horizontal=0;startSize=0;swimlaneHead=0;swimlaneBody=0;top=0;left=0;bottom=0;right=0;collapsible=0;dropTarget=0;fillColor=none;points=[[0,0.5],[1,0.5]];portConstraint=eastwest;strokeColor=inherit;fontSize=16;" vertex="1" parent="x249CVGgQLwnqaqQMpfh-21">
          <mxGeometry y="30" width="262.7" height="48" as="geometry" />
        </mxCell>
        <mxCell id="x249CVGgQLwnqaqQMpfh-23" value="" style="shape=partialRectangle;html=1;whiteSpace=wrap;connectable=0;fillColor=none;top=0;left=0;bottom=0;right=0;overflow=hidden;pointerEvents=1;strokeColor=inherit;fontSize=16;" vertex="1" parent="x249CVGgQLwnqaqQMpfh-22">
          <mxGeometry width="14" height="48" as="geometry">
            <mxRectangle width="14" height="48" as="alternateBounds" />
          </mxGeometry>
        </mxCell>
        <mxCell id="x249CVGgQLwnqaqQMpfh-24" value="author_id &lt;b&gt;(PK, FK, author(author_id))&lt;/b&gt;" style="shape=partialRectangle;html=1;whiteSpace=wrap;connectable=0;fillColor=none;top=0;left=0;bottom=0;right=0;align=left;spacingLeft=6;overflow=hidden;strokeColor=inherit;fontSize=16;" vertex="1" parent="x249CVGgQLwnqaqQMpfh-22">
          <mxGeometry x="14" width="249" height="48" as="geometry">
            <mxRectangle width="249" height="48" as="alternateBounds" />
          </mxGeometry>
        </mxCell>
        <mxCell id="x249CVGgQLwnqaqQMpfh-25" value="" style="shape=tableRow;horizontal=0;startSize=0;swimlaneHead=0;swimlaneBody=0;top=0;left=0;bottom=0;right=0;collapsible=0;dropTarget=0;fillColor=none;points=[[0,0.5],[1,0.5]];portConstraint=eastwest;strokeColor=inherit;fontSize=16;" vertex="1" parent="x249CVGgQLwnqaqQMpfh-21">
          <mxGeometry y="78" width="262.7" height="30" as="geometry" />
        </mxCell>
        <mxCell id="x249CVGgQLwnqaqQMpfh-26" value="" style="shape=partialRectangle;html=1;whiteSpace=wrap;connectable=0;fillColor=none;top=0;left=0;bottom=0;right=0;overflow=hidden;strokeColor=inherit;fontSize=16;" vertex="1" parent="x249CVGgQLwnqaqQMpfh-25">
          <mxGeometry width="14" height="30" as="geometry">
            <mxRectangle width="14" height="30" as="alternateBounds" />
          </mxGeometry>
        </mxCell>
        <mxCell id="x249CVGgQLwnqaqQMpfh-27" value="book_id &lt;b&gt;(FK, book(&lt;/b&gt;&lt;b&gt;book_id&lt;/b&gt;&lt;b&gt;))&lt;/b&gt;" style="shape=partialRectangle;html=1;whiteSpace=wrap;connectable=0;fillColor=none;top=0;left=0;bottom=0;right=0;align=left;spacingLeft=6;overflow=hidden;strokeColor=inherit;fontSize=16;" vertex="1" parent="x249CVGgQLwnqaqQMpfh-25">
          <mxGeometry x="14" width="249" height="30" as="geometry">
            <mxRectangle width="249" height="30" as="alternateBounds" />
          </mxGeometry>
        </mxCell>
        <mxCell id="x249CVGgQLwnqaqQMpfh-11" value="book" style="shape=table;startSize=30;container=1;collapsible=0;childLayout=tableLayout;fixedRows=1;rowLines=0;fontStyle=1;strokeColor=default;fontSize=16;" vertex="1" parent="x249CVGgQLwnqaqQMpfh-274">
          <mxGeometry x="1022.4863999999999" y="16.29" width="291.888" height="257.4200000000001" as="geometry" />
        </mxCell>
        <mxCell id="x249CVGgQLwnqaqQMpfh-12" value="" style="shape=tableRow;horizontal=0;startSize=0;swimlaneHead=0;swimlaneBody=0;top=0;left=0;bottom=0;right=0;collapsible=0;dropTarget=0;fillColor=none;points=[[0,0.5],[1,0.5]];portConstraint=eastwest;strokeColor=inherit;fontSize=16;" vertex="1" parent="x249CVGgQLwnqaqQMpfh-11">
          <mxGeometry y="30" width="291.888" height="30" as="geometry" />
        </mxCell>
        <mxCell id="x249CVGgQLwnqaqQMpfh-13" value="" style="shape=partialRectangle;html=1;whiteSpace=wrap;connectable=0;fillColor=none;top=0;left=0;bottom=0;right=0;overflow=hidden;pointerEvents=1;strokeColor=inherit;fontSize=16;" vertex="1" parent="x249CVGgQLwnqaqQMpfh-12">
          <mxGeometry width="14" height="30" as="geometry">
            <mxRectangle width="14" height="30" as="alternateBounds" />
          </mxGeometry>
        </mxCell>
        <mxCell id="x249CVGgQLwnqaqQMpfh-14" value="book_id&amp;nbsp;&lt;b&gt;(PK)&lt;/b&gt;" style="shape=partialRectangle;html=1;whiteSpace=wrap;connectable=0;fillColor=none;top=0;left=0;bottom=0;right=0;align=left;spacingLeft=6;overflow=hidden;strokeColor=inherit;fontSize=16;" vertex="1" parent="x249CVGgQLwnqaqQMpfh-12">
          <mxGeometry x="14" width="278" height="30" as="geometry">
            <mxRectangle width="278" height="30" as="alternateBounds" />
          </mxGeometry>
        </mxCell>
        <mxCell id="x249CVGgQLwnqaqQMpfh-15" value="" style="shape=tableRow;horizontal=0;startSize=0;swimlaneHead=0;swimlaneBody=0;top=0;left=0;bottom=0;right=0;collapsible=0;dropTarget=0;fillColor=none;points=[[0,0.5],[1,0.5]];portConstraint=eastwest;strokeColor=inherit;fontSize=16;" vertex="1" parent="x249CVGgQLwnqaqQMpfh-11">
          <mxGeometry y="60" width="291.888" height="30" as="geometry" />
        </mxCell>
        <mxCell id="x249CVGgQLwnqaqQMpfh-16" value="" style="shape=partialRectangle;html=1;whiteSpace=wrap;connectable=0;fillColor=none;top=0;left=0;bottom=0;right=0;overflow=hidden;strokeColor=inherit;fontSize=16;" vertex="1" parent="x249CVGgQLwnqaqQMpfh-15">
          <mxGeometry width="14" height="30" as="geometry">
            <mxRectangle width="14" height="30" as="alternateBounds" />
          </mxGeometry>
        </mxCell>
        <mxCell id="x249CVGgQLwnqaqQMpfh-17" value="title&lt;span style=&quot;white-space: pre;&quot;&gt;&#x9;&lt;/span&gt;" style="shape=partialRectangle;html=1;whiteSpace=wrap;connectable=0;fillColor=none;top=0;left=0;bottom=0;right=0;align=left;spacingLeft=6;overflow=hidden;strokeColor=inherit;fontSize=16;" vertex="1" parent="x249CVGgQLwnqaqQMpfh-15">
          <mxGeometry x="14" width="278" height="30" as="geometry">
            <mxRectangle width="278" height="30" as="alternateBounds" />
          </mxGeometry>
        </mxCell>
        <mxCell id="x249CVGgQLwnqaqQMpfh-18" value="" style="shape=tableRow;horizontal=0;startSize=0;swimlaneHead=0;swimlaneBody=0;top=0;left=0;bottom=0;right=0;collapsible=0;dropTarget=0;fillColor=none;points=[[0,0.5],[1,0.5]];portConstraint=eastwest;strokeColor=inherit;fontSize=16;" vertex="1" parent="x249CVGgQLwnqaqQMpfh-11">
          <mxGeometry y="90" width="291.888" height="30" as="geometry" />
        </mxCell>
        <mxCell id="x249CVGgQLwnqaqQMpfh-19" value="" style="shape=partialRectangle;html=1;whiteSpace=wrap;connectable=0;fillColor=none;top=0;left=0;bottom=0;right=0;overflow=hidden;strokeColor=inherit;fontSize=16;" vertex="1" parent="x249CVGgQLwnqaqQMpfh-18">
          <mxGeometry width="14" height="30" as="geometry">
            <mxRectangle width="14" height="30" as="alternateBounds" />
          </mxGeometry>
        </mxCell>
        <mxCell id="x249CVGgQLwnqaqQMpfh-20" value="publication_year" style="shape=partialRectangle;html=1;whiteSpace=wrap;connectable=0;fillColor=none;top=0;left=0;bottom=0;right=0;align=left;spacingLeft=6;overflow=hidden;strokeColor=inherit;fontSize=16;" vertex="1" parent="x249CVGgQLwnqaqQMpfh-18">
          <mxGeometry x="14" width="278" height="30" as="geometry">
            <mxRectangle width="278" height="30" as="alternateBounds" />
          </mxGeometry>
        </mxCell>
        <mxCell id="x249CVGgQLwnqaqQMpfh-222" style="shape=tableRow;horizontal=0;startSize=0;swimlaneHead=0;swimlaneBody=0;top=0;left=0;bottom=0;right=0;collapsible=0;dropTarget=0;fillColor=none;points=[[0,0.5],[1,0.5]];portConstraint=eastwest;strokeColor=inherit;fontSize=16;" vertex="1" parent="x249CVGgQLwnqaqQMpfh-11">
          <mxGeometry y="120" width="291.888" height="30" as="geometry" />
        </mxCell>
        <mxCell id="x249CVGgQLwnqaqQMpfh-223" style="shape=partialRectangle;html=1;whiteSpace=wrap;connectable=0;fillColor=none;top=0;left=0;bottom=0;right=0;overflow=hidden;strokeColor=inherit;fontSize=16;" vertex="1" parent="x249CVGgQLwnqaqQMpfh-222">
          <mxGeometry width="14" height="30" as="geometry">
            <mxRectangle width="14" height="30" as="alternateBounds" />
          </mxGeometry>
        </mxCell>
        <mxCell id="x249CVGgQLwnqaqQMpfh-224" value="price" style="shape=partialRectangle;html=1;whiteSpace=wrap;connectable=0;fillColor=none;top=0;left=0;bottom=0;right=0;align=left;spacingLeft=6;overflow=hidden;strokeColor=inherit;fontSize=16;" vertex="1" parent="x249CVGgQLwnqaqQMpfh-222">
          <mxGeometry x="14" width="278" height="30" as="geometry">
            <mxRectangle width="278" height="30" as="alternateBounds" />
          </mxGeometry>
        </mxCell>
        <mxCell id="x249CVGgQLwnqaqQMpfh-225" style="shape=tableRow;horizontal=0;startSize=0;swimlaneHead=0;swimlaneBody=0;top=0;left=0;bottom=0;right=0;collapsible=0;dropTarget=0;fillColor=none;points=[[0,0.5],[1,0.5]];portConstraint=eastwest;strokeColor=inherit;fontSize=16;" vertex="1" parent="x249CVGgQLwnqaqQMpfh-11">
          <mxGeometry y="150" width="291.888" height="30" as="geometry" />
        </mxCell>
        <mxCell id="x249CVGgQLwnqaqQMpfh-226" style="shape=partialRectangle;html=1;whiteSpace=wrap;connectable=0;fillColor=none;top=0;left=0;bottom=0;right=0;overflow=hidden;strokeColor=inherit;fontSize=16;" vertex="1" parent="x249CVGgQLwnqaqQMpfh-225">
          <mxGeometry width="14" height="30" as="geometry">
            <mxRectangle width="14" height="30" as="alternateBounds" />
          </mxGeometry>
        </mxCell>
        <mxCell id="x249CVGgQLwnqaqQMpfh-227" value="language_id&amp;nbsp;&lt;b&gt;(FK,book_language(language_id))&lt;/b&gt;&lt;span style=&quot;white-space: pre;&quot;&gt;&#x9;&lt;/span&gt;" style="shape=partialRectangle;html=1;whiteSpace=wrap;connectable=0;fillColor=none;top=0;left=0;bottom=0;right=0;align=left;spacingLeft=6;overflow=hidden;strokeColor=inherit;fontSize=16;" vertex="1" parent="x249CVGgQLwnqaqQMpfh-225">
          <mxGeometry x="14" width="278" height="30" as="geometry">
            <mxRectangle width="278" height="30" as="alternateBounds" />
          </mxGeometry>
        </mxCell>
        <mxCell id="x249CVGgQLwnqaqQMpfh-228" style="shape=tableRow;horizontal=0;startSize=0;swimlaneHead=0;swimlaneBody=0;top=0;left=0;bottom=0;right=0;collapsible=0;dropTarget=0;fillColor=none;points=[[0,0.5],[1,0.5]];portConstraint=eastwest;strokeColor=inherit;fontSize=16;" vertex="1" parent="x249CVGgQLwnqaqQMpfh-11">
          <mxGeometry y="180" width="291.888" height="44" as="geometry" />
        </mxCell>
        <mxCell id="x249CVGgQLwnqaqQMpfh-229" style="shape=partialRectangle;html=1;whiteSpace=wrap;connectable=0;fillColor=none;top=0;left=0;bottom=0;right=0;overflow=hidden;strokeColor=inherit;fontSize=16;" vertex="1" parent="x249CVGgQLwnqaqQMpfh-228">
          <mxGeometry width="14" height="44" as="geometry">
            <mxRectangle width="14" height="44" as="alternateBounds" />
          </mxGeometry>
        </mxCell>
        <mxCell id="x249CVGgQLwnqaqQMpfh-230" value="publisher_id &lt;b&gt;(FK, publisher(publisher_id))&lt;/b&gt;" style="shape=partialRectangle;html=1;whiteSpace=wrap;connectable=0;fillColor=none;top=0;left=0;bottom=0;right=0;align=left;spacingLeft=6;overflow=hidden;strokeColor=inherit;fontSize=16;" vertex="1" parent="x249CVGgQLwnqaqQMpfh-228">
          <mxGeometry x="14" width="278" height="44" as="geometry">
            <mxRectangle width="278" height="44" as="alternateBounds" />
          </mxGeometry>
        </mxCell>
        <mxCell id="x249CVGgQLwnqaqQMpfh-231" style="shape=tableRow;horizontal=0;startSize=0;swimlaneHead=0;swimlaneBody=0;top=0;left=0;bottom=0;right=0;collapsible=0;dropTarget=0;fillColor=none;points=[[0,0.5],[1,0.5]];portConstraint=eastwest;strokeColor=inherit;fontSize=16;" vertex="1" parent="x249CVGgQLwnqaqQMpfh-11">
          <mxGeometry y="224" width="291.888" height="30" as="geometry" />
        </mxCell>
        <mxCell id="x249CVGgQLwnqaqQMpfh-232" style="shape=partialRectangle;html=1;whiteSpace=wrap;connectable=0;fillColor=none;top=0;left=0;bottom=0;right=0;overflow=hidden;strokeColor=inherit;fontSize=16;" vertex="1" parent="x249CVGgQLwnqaqQMpfh-231">
          <mxGeometry width="14" height="30" as="geometry">
            <mxRectangle width="14" height="30" as="alternateBounds" />
          </mxGeometry>
        </mxCell>
        <mxCell id="x249CVGgQLwnqaqQMpfh-233" value="stock_quantity" style="shape=partialRectangle;html=1;whiteSpace=wrap;connectable=0;fillColor=none;top=0;left=0;bottom=0;right=0;align=left;spacingLeft=6;overflow=hidden;strokeColor=inherit;fontSize=16;" vertex="1" parent="x249CVGgQLwnqaqQMpfh-231">
          <mxGeometry x="14" width="278" height="30" as="geometry">
            <mxRectangle width="278" height="30" as="alternateBounds" />
          </mxGeometry>
        </mxCell>
        <mxCell id="x249CVGgQLwnqaqQMpfh-81" value="address_status" style="shape=table;startSize=30;container=1;collapsible=0;childLayout=tableLayout;fixedRows=1;rowLines=0;fontStyle=1;strokeColor=default;fontSize=16;" vertex="1" parent="x249CVGgQLwnqaqQMpfh-274">
          <mxGeometry x="7.297297297297298" y="50.56" width="182.43243243243245" height="146.5979381443299" as="geometry" />
        </mxCell>
        <mxCell id="x249CVGgQLwnqaqQMpfh-82" value="" style="shape=tableRow;horizontal=0;startSize=0;swimlaneHead=0;swimlaneBody=0;top=0;left=0;bottom=0;right=0;collapsible=0;dropTarget=0;fillColor=none;points=[[0,0.5],[1,0.5]];portConstraint=eastwest;strokeColor=inherit;fontSize=16;" vertex="1" parent="x249CVGgQLwnqaqQMpfh-81">
          <mxGeometry y="30" width="182.43243243243245" height="30" as="geometry" />
        </mxCell>
        <mxCell id="x249CVGgQLwnqaqQMpfh-83" value="" style="shape=partialRectangle;html=1;whiteSpace=wrap;connectable=0;fillColor=none;top=0;left=0;bottom=0;right=0;overflow=hidden;pointerEvents=1;strokeColor=inherit;fontSize=16;" vertex="1" parent="x249CVGgQLwnqaqQMpfh-82">
          <mxGeometry width="14" height="30" as="geometry">
            <mxRectangle width="14" height="30" as="alternateBounds" />
          </mxGeometry>
        </mxCell>
        <mxCell id="x249CVGgQLwnqaqQMpfh-84" value="address_status_id &lt;b&gt;(PK)&lt;/b&gt;" style="shape=partialRectangle;html=1;whiteSpace=wrap;connectable=0;fillColor=none;top=0;left=0;bottom=0;right=0;align=left;spacingLeft=6;overflow=hidden;strokeColor=inherit;fontSize=16;" vertex="1" parent="x249CVGgQLwnqaqQMpfh-82">
          <mxGeometry x="14" width="168" height="30" as="geometry">
            <mxRectangle width="168" height="30" as="alternateBounds" />
          </mxGeometry>
        </mxCell>
        <mxCell id="x249CVGgQLwnqaqQMpfh-85" value="" style="shape=tableRow;horizontal=0;startSize=0;swimlaneHead=0;swimlaneBody=0;top=0;left=0;bottom=0;right=0;collapsible=0;dropTarget=0;fillColor=none;points=[[0,0.5],[1,0.5]];portConstraint=eastwest;strokeColor=inherit;fontSize=16;" vertex="1" parent="x249CVGgQLwnqaqQMpfh-81">
          <mxGeometry y="60" width="182.43243243243245" height="30" as="geometry" />
        </mxCell>
        <mxCell id="x249CVGgQLwnqaqQMpfh-86" value="" style="shape=partialRectangle;html=1;whiteSpace=wrap;connectable=0;fillColor=none;top=0;left=0;bottom=0;right=0;overflow=hidden;strokeColor=inherit;fontSize=16;" vertex="1" parent="x249CVGgQLwnqaqQMpfh-85">
          <mxGeometry width="14" height="30" as="geometry">
            <mxRectangle width="14" height="30" as="alternateBounds" />
          </mxGeometry>
        </mxCell>
        <mxCell id="x249CVGgQLwnqaqQMpfh-87" value="status_name" style="shape=partialRectangle;html=1;whiteSpace=wrap;connectable=0;fillColor=none;top=0;left=0;bottom=0;right=0;align=left;spacingLeft=6;overflow=hidden;strokeColor=inherit;fontSize=16;" vertex="1" parent="x249CVGgQLwnqaqQMpfh-85">
          <mxGeometry x="14" width="168" height="30" as="geometry">
            <mxRectangle width="168" height="30" as="alternateBounds" />
          </mxGeometry>
        </mxCell>
        <mxCell id="x249CVGgQLwnqaqQMpfh-61" value="customer_address" style="shape=table;startSize=30;container=1;collapsible=0;childLayout=tableLayout;fixedRows=1;rowLines=0;fontStyle=1;strokeColor=default;fontSize=16;" vertex="1" parent="x249CVGgQLwnqaqQMpfh-274">
          <mxGeometry x="364.86719999999997" y="37.92" width="357.57120000000003" height="152.08" as="geometry" />
        </mxCell>
        <mxCell id="x249CVGgQLwnqaqQMpfh-62" value="" style="shape=tableRow;horizontal=0;startSize=0;swimlaneHead=0;swimlaneBody=0;top=0;left=0;bottom=0;right=0;collapsible=0;dropTarget=0;fillColor=none;points=[[0,0.5],[1,0.5]];portConstraint=eastwest;strokeColor=inherit;fontSize=16;" vertex="1" parent="x249CVGgQLwnqaqQMpfh-61">
          <mxGeometry y="30" width="357.57120000000003" height="30" as="geometry" />
        </mxCell>
        <mxCell id="x249CVGgQLwnqaqQMpfh-63" value="" style="shape=partialRectangle;html=1;whiteSpace=wrap;connectable=0;fillColor=none;top=0;left=0;bottom=0;right=0;overflow=hidden;pointerEvents=1;strokeColor=inherit;fontSize=16;" vertex="1" parent="x249CVGgQLwnqaqQMpfh-62">
          <mxGeometry width="14" height="30" as="geometry">
            <mxRectangle width="14" height="30" as="alternateBounds" />
          </mxGeometry>
        </mxCell>
        <mxCell id="x249CVGgQLwnqaqQMpfh-64" value="customer_id &lt;b&gt;(FK,customer(customer_id))&lt;/b&gt;" style="shape=partialRectangle;html=1;whiteSpace=wrap;connectable=0;fillColor=none;top=0;left=0;bottom=0;right=0;align=left;spacingLeft=6;overflow=hidden;strokeColor=inherit;fontSize=16;" vertex="1" parent="x249CVGgQLwnqaqQMpfh-62">
          <mxGeometry x="14" width="344" height="30" as="geometry">
            <mxRectangle width="344" height="30" as="alternateBounds" />
          </mxGeometry>
        </mxCell>
        <mxCell id="x249CVGgQLwnqaqQMpfh-65" value="" style="shape=tableRow;horizontal=0;startSize=0;swimlaneHead=0;swimlaneBody=0;top=0;left=0;bottom=0;right=0;collapsible=0;dropTarget=0;fillColor=none;points=[[0,0.5],[1,0.5]];portConstraint=eastwest;strokeColor=inherit;fontSize=16;" vertex="1" parent="x249CVGgQLwnqaqQMpfh-61">
          <mxGeometry y="60" width="357.57120000000003" height="42" as="geometry" />
        </mxCell>
        <mxCell id="x249CVGgQLwnqaqQMpfh-66" value="" style="shape=partialRectangle;html=1;whiteSpace=wrap;connectable=0;fillColor=none;top=0;left=0;bottom=0;right=0;overflow=hidden;strokeColor=inherit;fontSize=16;" vertex="1" parent="x249CVGgQLwnqaqQMpfh-65">
          <mxGeometry width="14" height="42" as="geometry">
            <mxRectangle width="14" height="42" as="alternateBounds" />
          </mxGeometry>
        </mxCell>
        <mxCell id="x249CVGgQLwnqaqQMpfh-67" value="address_id &lt;b&gt;(FK, address(address_id))&lt;/b&gt;" style="shape=partialRectangle;html=1;whiteSpace=wrap;connectable=0;fillColor=none;top=0;left=0;bottom=0;right=0;align=left;spacingLeft=6;overflow=hidden;strokeColor=inherit;fontSize=16;" vertex="1" parent="x249CVGgQLwnqaqQMpfh-65">
          <mxGeometry x="14" width="344" height="42" as="geometry">
            <mxRectangle width="344" height="42" as="alternateBounds" />
          </mxGeometry>
        </mxCell>
        <mxCell id="x249CVGgQLwnqaqQMpfh-68" value="" style="shape=tableRow;horizontal=0;startSize=0;swimlaneHead=0;swimlaneBody=0;top=0;left=0;bottom=0;right=0;collapsible=0;dropTarget=0;fillColor=none;points=[[0,0.5],[1,0.5]];portConstraint=eastwest;strokeColor=inherit;fontSize=16;" vertex="1" parent="x249CVGgQLwnqaqQMpfh-61">
          <mxGeometry y="102" width="357.57120000000003" height="43" as="geometry" />
        </mxCell>
        <mxCell id="x249CVGgQLwnqaqQMpfh-69" value="" style="shape=partialRectangle;html=1;whiteSpace=wrap;connectable=0;fillColor=none;top=0;left=0;bottom=0;right=0;overflow=hidden;strokeColor=inherit;fontSize=16;" vertex="1" parent="x249CVGgQLwnqaqQMpfh-68">
          <mxGeometry width="14" height="43" as="geometry">
            <mxRectangle width="14" height="43" as="alternateBounds" />
          </mxGeometry>
        </mxCell>
        <mxCell id="x249CVGgQLwnqaqQMpfh-70" value="address_status_id &lt;b&gt;(FK, address_status(address_status_id))&lt;/b&gt;" style="shape=partialRectangle;html=1;whiteSpace=wrap;connectable=0;fillColor=none;top=0;left=0;bottom=0;right=0;align=left;spacingLeft=6;overflow=hidden;strokeColor=inherit;fontSize=16;" vertex="1" parent="x249CVGgQLwnqaqQMpfh-68">
          <mxGeometry x="14" width="344" height="43" as="geometry">
            <mxRectangle width="344" height="43" as="alternateBounds" />
          </mxGeometry>
        </mxCell>
        <mxCell id="x249CVGgQLwnqaqQMpfh-41" value="book_language" style="shape=table;startSize=30;container=1;collapsible=0;childLayout=tableLayout;fixedRows=1;rowLines=0;fontStyle=1;strokeColor=default;fontSize=16;" vertex="1" parent="x249CVGgQLwnqaqQMpfh-274">
          <mxGeometry x="255.40800000000002" y="456.08" width="230.27519999999998" height="94" as="geometry" />
        </mxCell>
        <mxCell id="x249CVGgQLwnqaqQMpfh-42" value="" style="shape=tableRow;horizontal=0;startSize=0;swimlaneHead=0;swimlaneBody=0;top=0;left=0;bottom=0;right=0;collapsible=0;dropTarget=0;fillColor=none;points=[[0,0.5],[1,0.5]];portConstraint=eastwest;strokeColor=inherit;fontSize=16;" vertex="1" parent="x249CVGgQLwnqaqQMpfh-41">
          <mxGeometry y="30" width="230.27519999999998" height="34" as="geometry" />
        </mxCell>
        <mxCell id="x249CVGgQLwnqaqQMpfh-43" value="" style="shape=partialRectangle;html=1;whiteSpace=wrap;connectable=0;fillColor=none;top=0;left=0;bottom=0;right=0;overflow=hidden;pointerEvents=1;strokeColor=inherit;fontSize=16;" vertex="1" parent="x249CVGgQLwnqaqQMpfh-42">
          <mxGeometry width="24" height="34" as="geometry">
            <mxRectangle width="24" height="34" as="alternateBounds" />
          </mxGeometry>
        </mxCell>
        <mxCell id="x249CVGgQLwnqaqQMpfh-44" value="language_id &lt;b&gt;(PK)&lt;/b&gt;" style="shape=partialRectangle;html=1;whiteSpace=wrap;connectable=0;fillColor=none;top=0;left=0;bottom=0;right=0;align=left;spacingLeft=6;overflow=hidden;strokeColor=inherit;fontSize=16;" vertex="1" parent="x249CVGgQLwnqaqQMpfh-42">
          <mxGeometry x="24" width="206" height="34" as="geometry">
            <mxRectangle width="206" height="34" as="alternateBounds" />
          </mxGeometry>
        </mxCell>
        <mxCell id="x249CVGgQLwnqaqQMpfh-45" value="" style="shape=tableRow;horizontal=0;startSize=0;swimlaneHead=0;swimlaneBody=0;top=0;left=0;bottom=0;right=0;collapsible=0;dropTarget=0;fillColor=none;points=[[0,0.5],[1,0.5]];portConstraint=eastwest;strokeColor=inherit;fontSize=16;" vertex="1" parent="x249CVGgQLwnqaqQMpfh-41">
          <mxGeometry y="64" width="230.27519999999998" height="30" as="geometry" />
        </mxCell>
        <mxCell id="x249CVGgQLwnqaqQMpfh-46" value="" style="shape=partialRectangle;html=1;whiteSpace=wrap;connectable=0;fillColor=none;top=0;left=0;bottom=0;right=0;overflow=hidden;strokeColor=inherit;fontSize=16;" vertex="1" parent="x249CVGgQLwnqaqQMpfh-45">
          <mxGeometry width="24" height="30" as="geometry">
            <mxRectangle width="24" height="30" as="alternateBounds" />
          </mxGeometry>
        </mxCell>
        <mxCell id="x249CVGgQLwnqaqQMpfh-47" value="language_name" style="shape=partialRectangle;html=1;whiteSpace=wrap;connectable=0;fillColor=none;top=0;left=0;bottom=0;right=0;align=left;spacingLeft=6;overflow=hidden;strokeColor=inherit;fontSize=16;" vertex="1" parent="x249CVGgQLwnqaqQMpfh-45">
          <mxGeometry x="24" width="206" height="30" as="geometry">
            <mxRectangle width="206" height="30" as="alternateBounds" />
          </mxGeometry>
        </mxCell>
        <mxCell id="x249CVGgQLwnqaqQMpfh-51" value="publisher" style="shape=table;startSize=30;container=1;collapsible=0;childLayout=tableLayout;fixedRows=1;rowLines=0;fontStyle=1;strokeColor=default;fontSize=16;" vertex="1" parent="x249CVGgQLwnqaqQMpfh-274">
          <mxGeometry x="754.0799999999999" y="439.79" width="198.1056" height="170.21" as="geometry" />
        </mxCell>
        <mxCell id="x249CVGgQLwnqaqQMpfh-52" value="" style="shape=tableRow;horizontal=0;startSize=0;swimlaneHead=0;swimlaneBody=0;top=0;left=0;bottom=0;right=0;collapsible=0;dropTarget=0;fillColor=none;points=[[0,0.5],[1,0.5]];portConstraint=eastwest;strokeColor=inherit;fontSize=16;" vertex="1" parent="x249CVGgQLwnqaqQMpfh-51">
          <mxGeometry y="30" width="198.1056" height="30" as="geometry" />
        </mxCell>
        <mxCell id="x249CVGgQLwnqaqQMpfh-53" value="" style="shape=partialRectangle;html=1;whiteSpace=wrap;connectable=0;fillColor=none;top=0;left=0;bottom=0;right=0;overflow=hidden;pointerEvents=1;strokeColor=inherit;fontSize=16;" vertex="1" parent="x249CVGgQLwnqaqQMpfh-52">
          <mxGeometry width="14" height="30" as="geometry">
            <mxRectangle width="14" height="30" as="alternateBounds" />
          </mxGeometry>
        </mxCell>
        <mxCell id="x249CVGgQLwnqaqQMpfh-54" value="publisher_id&lt;b&gt;&amp;nbsp;(PK)&lt;/b&gt;" style="shape=partialRectangle;html=1;whiteSpace=wrap;connectable=0;fillColor=none;top=0;left=0;bottom=0;right=0;align=left;spacingLeft=6;overflow=hidden;strokeColor=inherit;fontSize=16;" vertex="1" parent="x249CVGgQLwnqaqQMpfh-52">
          <mxGeometry x="14" width="184" height="30" as="geometry">
            <mxRectangle width="184" height="30" as="alternateBounds" />
          </mxGeometry>
        </mxCell>
        <mxCell id="x249CVGgQLwnqaqQMpfh-55" value="" style="shape=tableRow;horizontal=0;startSize=0;swimlaneHead=0;swimlaneBody=0;top=0;left=0;bottom=0;right=0;collapsible=0;dropTarget=0;fillColor=none;points=[[0,0.5],[1,0.5]];portConstraint=eastwest;strokeColor=inherit;fontSize=16;" vertex="1" parent="x249CVGgQLwnqaqQMpfh-51">
          <mxGeometry y="60" width="198.1056" height="30" as="geometry" />
        </mxCell>
        <mxCell id="x249CVGgQLwnqaqQMpfh-56" value="" style="shape=partialRectangle;html=1;whiteSpace=wrap;connectable=0;fillColor=none;top=0;left=0;bottom=0;right=0;overflow=hidden;strokeColor=inherit;fontSize=16;" vertex="1" parent="x249CVGgQLwnqaqQMpfh-55">
          <mxGeometry width="14" height="30" as="geometry">
            <mxRectangle width="14" height="30" as="alternateBounds" />
          </mxGeometry>
        </mxCell>
        <mxCell id="x249CVGgQLwnqaqQMpfh-57" value="name" style="shape=partialRectangle;html=1;whiteSpace=wrap;connectable=0;fillColor=none;top=0;left=0;bottom=0;right=0;align=left;spacingLeft=6;overflow=hidden;strokeColor=inherit;fontSize=16;" vertex="1" parent="x249CVGgQLwnqaqQMpfh-55">
          <mxGeometry x="14" width="184" height="30" as="geometry">
            <mxRectangle width="184" height="30" as="alternateBounds" />
          </mxGeometry>
        </mxCell>
        <mxCell id="x249CVGgQLwnqaqQMpfh-58" value="" style="shape=tableRow;horizontal=0;startSize=0;swimlaneHead=0;swimlaneBody=0;top=0;left=0;bottom=0;right=0;collapsible=0;dropTarget=0;fillColor=none;points=[[0,0.5],[1,0.5]];portConstraint=eastwest;strokeColor=inherit;fontSize=16;" vertex="1" parent="x249CVGgQLwnqaqQMpfh-51">
          <mxGeometry y="90" width="198.1056" height="30" as="geometry" />
        </mxCell>
        <mxCell id="x249CVGgQLwnqaqQMpfh-59" value="" style="shape=partialRectangle;html=1;whiteSpace=wrap;connectable=0;fillColor=none;top=0;left=0;bottom=0;right=0;overflow=hidden;strokeColor=inherit;fontSize=16;" vertex="1" parent="x249CVGgQLwnqaqQMpfh-58">
          <mxGeometry width="14" height="30" as="geometry">
            <mxRectangle width="14" height="30" as="alternateBounds" />
          </mxGeometry>
        </mxCell>
        <mxCell id="x249CVGgQLwnqaqQMpfh-60" value="contact_email" style="shape=partialRectangle;html=1;whiteSpace=wrap;connectable=0;fillColor=none;top=0;left=0;bottom=0;right=0;align=left;spacingLeft=6;overflow=hidden;strokeColor=inherit;fontSize=16;" vertex="1" parent="x249CVGgQLwnqaqQMpfh-58">
          <mxGeometry x="14" width="184" height="30" as="geometry">
            <mxRectangle width="184" height="30" as="alternateBounds" />
          </mxGeometry>
        </mxCell>
        <mxCell id="x249CVGgQLwnqaqQMpfh-216" style="shape=tableRow;horizontal=0;startSize=0;swimlaneHead=0;swimlaneBody=0;top=0;left=0;bottom=0;right=0;collapsible=0;dropTarget=0;fillColor=none;points=[[0,0.5],[1,0.5]];portConstraint=eastwest;strokeColor=inherit;fontSize=16;" vertex="1" parent="x249CVGgQLwnqaqQMpfh-51">
          <mxGeometry y="120" width="198.1056" height="30" as="geometry" />
        </mxCell>
        <mxCell id="x249CVGgQLwnqaqQMpfh-217" style="shape=partialRectangle;html=1;whiteSpace=wrap;connectable=0;fillColor=none;top=0;left=0;bottom=0;right=0;overflow=hidden;strokeColor=inherit;fontSize=16;" vertex="1" parent="x249CVGgQLwnqaqQMpfh-216">
          <mxGeometry width="14" height="30" as="geometry">
            <mxRectangle width="14" height="30" as="alternateBounds" />
          </mxGeometry>
        </mxCell>
        <mxCell id="x249CVGgQLwnqaqQMpfh-218" value="contact_phone" style="shape=partialRectangle;html=1;whiteSpace=wrap;connectable=0;fillColor=none;top=0;left=0;bottom=0;right=0;align=left;spacingLeft=6;overflow=hidden;strokeColor=inherit;fontSize=16;" vertex="1" parent="x249CVGgQLwnqaqQMpfh-216">
          <mxGeometry x="14" width="184" height="30" as="geometry">
            <mxRectangle width="184" height="30" as="alternateBounds" />
          </mxGeometry>
        </mxCell>
        <mxCell id="x249CVGgQLwnqaqQMpfh-91" value="address" style="shape=table;startSize=30;container=1;collapsible=0;childLayout=tableLayout;fixedRows=1;rowLines=0;fontStyle=1;strokeColor=default;fontSize=16;" vertex="1" parent="x249CVGgQLwnqaqQMpfh-274">
          <mxGeometry x="77.75999999999999" y="760" width="233.5104" height="210" as="geometry" />
        </mxCell>
        <mxCell id="x249CVGgQLwnqaqQMpfh-92" value="" style="shape=tableRow;horizontal=0;startSize=0;swimlaneHead=0;swimlaneBody=0;top=0;left=0;bottom=0;right=0;collapsible=0;dropTarget=0;fillColor=none;points=[[0,0.5],[1,0.5]];portConstraint=eastwest;strokeColor=inherit;fontSize=16;" vertex="1" parent="x249CVGgQLwnqaqQMpfh-91">
          <mxGeometry y="30" width="233.5104" height="30" as="geometry" />
        </mxCell>
        <mxCell id="x249CVGgQLwnqaqQMpfh-93" value="" style="shape=partialRectangle;html=1;whiteSpace=wrap;connectable=0;fillColor=none;top=0;left=0;bottom=0;right=0;overflow=hidden;pointerEvents=1;strokeColor=inherit;fontSize=16;" vertex="1" parent="x249CVGgQLwnqaqQMpfh-92">
          <mxGeometry width="14" height="30" as="geometry">
            <mxRectangle width="14" height="30" as="alternateBounds" />
          </mxGeometry>
        </mxCell>
        <mxCell id="x249CVGgQLwnqaqQMpfh-94" value="address_id&amp;nbsp;&lt;b&gt;(PK)&lt;/b&gt;" style="shape=partialRectangle;html=1;whiteSpace=wrap;connectable=0;fillColor=none;top=0;left=0;bottom=0;right=0;align=left;spacingLeft=6;overflow=hidden;strokeColor=inherit;fontSize=16;" vertex="1" parent="x249CVGgQLwnqaqQMpfh-92">
          <mxGeometry x="14" width="220" height="30" as="geometry">
            <mxRectangle width="220" height="30" as="alternateBounds" />
          </mxGeometry>
        </mxCell>
        <mxCell id="x249CVGgQLwnqaqQMpfh-95" value="" style="shape=tableRow;horizontal=0;startSize=0;swimlaneHead=0;swimlaneBody=0;top=0;left=0;bottom=0;right=0;collapsible=0;dropTarget=0;fillColor=none;points=[[0,0.5],[1,0.5]];portConstraint=eastwest;strokeColor=inherit;fontSize=16;" vertex="1" parent="x249CVGgQLwnqaqQMpfh-91">
          <mxGeometry y="60" width="233.5104" height="30" as="geometry" />
        </mxCell>
        <mxCell id="x249CVGgQLwnqaqQMpfh-96" value="" style="shape=partialRectangle;html=1;whiteSpace=wrap;connectable=0;fillColor=none;top=0;left=0;bottom=0;right=0;overflow=hidden;strokeColor=inherit;fontSize=16;" vertex="1" parent="x249CVGgQLwnqaqQMpfh-95">
          <mxGeometry width="14" height="30" as="geometry">
            <mxRectangle width="14" height="30" as="alternateBounds" />
          </mxGeometry>
        </mxCell>
        <mxCell id="x249CVGgQLwnqaqQMpfh-97" value="street&amp;nbsp;&lt;span style=&quot;white-space: pre;&quot;&gt;&#x9;&lt;/span&gt;" style="shape=partialRectangle;html=1;whiteSpace=wrap;connectable=0;fillColor=none;top=0;left=0;bottom=0;right=0;align=left;spacingLeft=6;overflow=hidden;strokeColor=inherit;fontSize=16;" vertex="1" parent="x249CVGgQLwnqaqQMpfh-95">
          <mxGeometry x="14" width="220" height="30" as="geometry">
            <mxRectangle width="220" height="30" as="alternateBounds" />
          </mxGeometry>
        </mxCell>
        <mxCell id="x249CVGgQLwnqaqQMpfh-98" value="" style="shape=tableRow;horizontal=0;startSize=0;swimlaneHead=0;swimlaneBody=0;top=0;left=0;bottom=0;right=0;collapsible=0;dropTarget=0;fillColor=none;points=[[0,0.5],[1,0.5]];portConstraint=eastwest;strokeColor=inherit;fontSize=16;" vertex="1" parent="x249CVGgQLwnqaqQMpfh-91">
          <mxGeometry y="90" width="233.5104" height="30" as="geometry" />
        </mxCell>
        <mxCell id="x249CVGgQLwnqaqQMpfh-99" value="" style="shape=partialRectangle;html=1;whiteSpace=wrap;connectable=0;fillColor=none;top=0;left=0;bottom=0;right=0;overflow=hidden;strokeColor=inherit;fontSize=16;" vertex="1" parent="x249CVGgQLwnqaqQMpfh-98">
          <mxGeometry width="14" height="30" as="geometry">
            <mxRectangle width="14" height="30" as="alternateBounds" />
          </mxGeometry>
        </mxCell>
        <mxCell id="x249CVGgQLwnqaqQMpfh-100" value="city" style="shape=partialRectangle;html=1;whiteSpace=wrap;connectable=0;fillColor=none;top=0;left=0;bottom=0;right=0;align=left;spacingLeft=6;overflow=hidden;strokeColor=inherit;fontSize=16;" vertex="1" parent="x249CVGgQLwnqaqQMpfh-98">
          <mxGeometry x="14" width="220" height="30" as="geometry">
            <mxRectangle width="220" height="30" as="alternateBounds" />
          </mxGeometry>
        </mxCell>
        <mxCell id="x249CVGgQLwnqaqQMpfh-194" style="shape=tableRow;horizontal=0;startSize=0;swimlaneHead=0;swimlaneBody=0;top=0;left=0;bottom=0;right=0;collapsible=0;dropTarget=0;fillColor=none;points=[[0,0.5],[1,0.5]];portConstraint=eastwest;strokeColor=inherit;fontSize=16;" vertex="1" parent="x249CVGgQLwnqaqQMpfh-91">
          <mxGeometry y="120" width="233.5104" height="30" as="geometry" />
        </mxCell>
        <mxCell id="x249CVGgQLwnqaqQMpfh-195" style="shape=partialRectangle;html=1;whiteSpace=wrap;connectable=0;fillColor=none;top=0;left=0;bottom=0;right=0;overflow=hidden;strokeColor=inherit;fontSize=16;" vertex="1" parent="x249CVGgQLwnqaqQMpfh-194">
          <mxGeometry width="14" height="30" as="geometry">
            <mxRectangle width="14" height="30" as="alternateBounds" />
          </mxGeometry>
        </mxCell>
        <mxCell id="x249CVGgQLwnqaqQMpfh-196" value="state" style="shape=partialRectangle;html=1;whiteSpace=wrap;connectable=0;fillColor=none;top=0;left=0;bottom=0;right=0;align=left;spacingLeft=6;overflow=hidden;strokeColor=inherit;fontSize=16;" vertex="1" parent="x249CVGgQLwnqaqQMpfh-194">
          <mxGeometry x="14" width="220" height="30" as="geometry">
            <mxRectangle width="220" height="30" as="alternateBounds" />
          </mxGeometry>
        </mxCell>
        <mxCell id="x249CVGgQLwnqaqQMpfh-197" style="shape=tableRow;horizontal=0;startSize=0;swimlaneHead=0;swimlaneBody=0;top=0;left=0;bottom=0;right=0;collapsible=0;dropTarget=0;fillColor=none;points=[[0,0.5],[1,0.5]];portConstraint=eastwest;strokeColor=inherit;fontSize=16;" vertex="1" parent="x249CVGgQLwnqaqQMpfh-91">
          <mxGeometry y="150" width="233.5104" height="30" as="geometry" />
        </mxCell>
        <mxCell id="x249CVGgQLwnqaqQMpfh-198" style="shape=partialRectangle;html=1;whiteSpace=wrap;connectable=0;fillColor=none;top=0;left=0;bottom=0;right=0;overflow=hidden;strokeColor=inherit;fontSize=16;" vertex="1" parent="x249CVGgQLwnqaqQMpfh-197">
          <mxGeometry width="14" height="30" as="geometry">
            <mxRectangle width="14" height="30" as="alternateBounds" />
          </mxGeometry>
        </mxCell>
        <mxCell id="x249CVGgQLwnqaqQMpfh-199" value="postal_code" style="shape=partialRectangle;html=1;whiteSpace=wrap;connectable=0;fillColor=none;top=0;left=0;bottom=0;right=0;align=left;spacingLeft=6;overflow=hidden;strokeColor=inherit;fontSize=16;" vertex="1" parent="x249CVGgQLwnqaqQMpfh-197">
          <mxGeometry x="14" width="220" height="30" as="geometry">
            <mxRectangle width="220" height="30" as="alternateBounds" />
          </mxGeometry>
        </mxCell>
        <mxCell id="x249CVGgQLwnqaqQMpfh-200" style="shape=tableRow;horizontal=0;startSize=0;swimlaneHead=0;swimlaneBody=0;top=0;left=0;bottom=0;right=0;collapsible=0;dropTarget=0;fillColor=none;points=[[0,0.5],[1,0.5]];portConstraint=eastwest;strokeColor=inherit;fontSize=16;" vertex="1" parent="x249CVGgQLwnqaqQMpfh-91">
          <mxGeometry y="180" width="233.5104" height="30" as="geometry" />
        </mxCell>
        <mxCell id="x249CVGgQLwnqaqQMpfh-201" style="shape=partialRectangle;html=1;whiteSpace=wrap;connectable=0;fillColor=none;top=0;left=0;bottom=0;right=0;overflow=hidden;strokeColor=inherit;fontSize=16;" vertex="1" parent="x249CVGgQLwnqaqQMpfh-200">
          <mxGeometry width="14" height="30" as="geometry">
            <mxRectangle width="14" height="30" as="alternateBounds" />
          </mxGeometry>
        </mxCell>
        <mxCell id="x249CVGgQLwnqaqQMpfh-202" value="country_id &lt;b&gt;(FK, country(country_id)&lt;/b&gt;" style="shape=partialRectangle;html=1;whiteSpace=wrap;connectable=0;fillColor=none;top=0;left=0;bottom=0;right=0;align=left;spacingLeft=6;overflow=hidden;strokeColor=inherit;fontSize=16;" vertex="1" parent="x249CVGgQLwnqaqQMpfh-200">
          <mxGeometry x="14" width="220" height="30" as="geometry">
            <mxRectangle width="220" height="30" as="alternateBounds" />
          </mxGeometry>
        </mxCell>
        <mxCell id="x249CVGgQLwnqaqQMpfh-101" value="customer" style="shape=table;startSize=30;container=1;collapsible=0;childLayout=tableLayout;fixedRows=1;rowLines=0;fontStyle=1;strokeColor=default;fontSize=16;" vertex="1" parent="x249CVGgQLwnqaqQMpfh-274">
          <mxGeometry x="288.96" y="1140" width="131.3472" height="180" as="geometry" />
        </mxCell>
        <mxCell id="x249CVGgQLwnqaqQMpfh-102" value="" style="shape=tableRow;horizontal=0;startSize=0;swimlaneHead=0;swimlaneBody=0;top=0;left=0;bottom=0;right=0;collapsible=0;dropTarget=0;fillColor=none;points=[[0,0.5],[1,0.5]];portConstraint=eastwest;strokeColor=inherit;fontSize=16;" vertex="1" parent="x249CVGgQLwnqaqQMpfh-101">
          <mxGeometry y="30" width="131.3472" height="30" as="geometry" />
        </mxCell>
        <mxCell id="x249CVGgQLwnqaqQMpfh-103" value="" style="shape=partialRectangle;html=1;whiteSpace=wrap;connectable=0;fillColor=none;top=0;left=0;bottom=0;right=0;overflow=hidden;pointerEvents=1;strokeColor=inherit;fontSize=16;" vertex="1" parent="x249CVGgQLwnqaqQMpfh-102">
          <mxGeometry width="14" height="30" as="geometry">
            <mxRectangle width="14" height="30" as="alternateBounds" />
          </mxGeometry>
        </mxCell>
        <mxCell id="x249CVGgQLwnqaqQMpfh-104" value="customer_id&amp;nbsp;&lt;b&gt;(PK)&lt;/b&gt;" style="shape=partialRectangle;html=1;whiteSpace=wrap;connectable=0;fillColor=none;top=0;left=0;bottom=0;right=0;align=left;spacingLeft=6;overflow=hidden;strokeColor=inherit;fontSize=16;" vertex="1" parent="x249CVGgQLwnqaqQMpfh-102">
          <mxGeometry x="14" width="117" height="30" as="geometry">
            <mxRectangle width="117" height="30" as="alternateBounds" />
          </mxGeometry>
        </mxCell>
        <mxCell id="x249CVGgQLwnqaqQMpfh-105" value="" style="shape=tableRow;horizontal=0;startSize=0;swimlaneHead=0;swimlaneBody=0;top=0;left=0;bottom=0;right=0;collapsible=0;dropTarget=0;fillColor=none;points=[[0,0.5],[1,0.5]];portConstraint=eastwest;strokeColor=inherit;fontSize=16;" vertex="1" parent="x249CVGgQLwnqaqQMpfh-101">
          <mxGeometry y="60" width="131.3472" height="30" as="geometry" />
        </mxCell>
        <mxCell id="x249CVGgQLwnqaqQMpfh-106" value="" style="shape=partialRectangle;html=1;whiteSpace=wrap;connectable=0;fillColor=none;top=0;left=0;bottom=0;right=0;overflow=hidden;strokeColor=inherit;fontSize=16;" vertex="1" parent="x249CVGgQLwnqaqQMpfh-105">
          <mxGeometry width="14" height="30" as="geometry">
            <mxRectangle width="14" height="30" as="alternateBounds" />
          </mxGeometry>
        </mxCell>
        <mxCell id="x249CVGgQLwnqaqQMpfh-107" value="first_name" style="shape=partialRectangle;html=1;whiteSpace=wrap;connectable=0;fillColor=none;top=0;left=0;bottom=0;right=0;align=left;spacingLeft=6;overflow=hidden;strokeColor=inherit;fontSize=16;" vertex="1" parent="x249CVGgQLwnqaqQMpfh-105">
          <mxGeometry x="14" width="117" height="30" as="geometry">
            <mxRectangle width="117" height="30" as="alternateBounds" />
          </mxGeometry>
        </mxCell>
        <mxCell id="x249CVGgQLwnqaqQMpfh-108" value="" style="shape=tableRow;horizontal=0;startSize=0;swimlaneHead=0;swimlaneBody=0;top=0;left=0;bottom=0;right=0;collapsible=0;dropTarget=0;fillColor=none;points=[[0,0.5],[1,0.5]];portConstraint=eastwest;strokeColor=inherit;fontSize=16;" vertex="1" parent="x249CVGgQLwnqaqQMpfh-101">
          <mxGeometry y="90" width="131.3472" height="30" as="geometry" />
        </mxCell>
        <mxCell id="x249CVGgQLwnqaqQMpfh-109" value="" style="shape=partialRectangle;html=1;whiteSpace=wrap;connectable=0;fillColor=none;top=0;left=0;bottom=0;right=0;overflow=hidden;strokeColor=inherit;fontSize=16;" vertex="1" parent="x249CVGgQLwnqaqQMpfh-108">
          <mxGeometry width="14" height="30" as="geometry">
            <mxRectangle width="14" height="30" as="alternateBounds" />
          </mxGeometry>
        </mxCell>
        <mxCell id="x249CVGgQLwnqaqQMpfh-110" value="last_name" style="shape=partialRectangle;html=1;whiteSpace=wrap;connectable=0;fillColor=none;top=0;left=0;bottom=0;right=0;align=left;spacingLeft=6;overflow=hidden;strokeColor=inherit;fontSize=16;" vertex="1" parent="x249CVGgQLwnqaqQMpfh-108">
          <mxGeometry x="14" width="117" height="30" as="geometry">
            <mxRectangle width="117" height="30" as="alternateBounds" />
          </mxGeometry>
        </mxCell>
        <mxCell id="x249CVGgQLwnqaqQMpfh-206" style="shape=tableRow;horizontal=0;startSize=0;swimlaneHead=0;swimlaneBody=0;top=0;left=0;bottom=0;right=0;collapsible=0;dropTarget=0;fillColor=none;points=[[0,0.5],[1,0.5]];portConstraint=eastwest;strokeColor=inherit;fontSize=16;" vertex="1" parent="x249CVGgQLwnqaqQMpfh-101">
          <mxGeometry y="120" width="131.3472" height="30" as="geometry" />
        </mxCell>
        <mxCell id="x249CVGgQLwnqaqQMpfh-207" style="shape=partialRectangle;html=1;whiteSpace=wrap;connectable=0;fillColor=none;top=0;left=0;bottom=0;right=0;overflow=hidden;strokeColor=inherit;fontSize=16;" vertex="1" parent="x249CVGgQLwnqaqQMpfh-206">
          <mxGeometry width="14" height="30" as="geometry">
            <mxRectangle width="14" height="30" as="alternateBounds" />
          </mxGeometry>
        </mxCell>
        <mxCell id="x249CVGgQLwnqaqQMpfh-208" value="email" style="shape=partialRectangle;html=1;whiteSpace=wrap;connectable=0;fillColor=none;top=0;left=0;bottom=0;right=0;align=left;spacingLeft=6;overflow=hidden;strokeColor=inherit;fontSize=16;" vertex="1" parent="x249CVGgQLwnqaqQMpfh-206">
          <mxGeometry x="14" width="117" height="30" as="geometry">
            <mxRectangle width="117" height="30" as="alternateBounds" />
          </mxGeometry>
        </mxCell>
        <mxCell id="x249CVGgQLwnqaqQMpfh-209" style="shape=tableRow;horizontal=0;startSize=0;swimlaneHead=0;swimlaneBody=0;top=0;left=0;bottom=0;right=0;collapsible=0;dropTarget=0;fillColor=none;points=[[0,0.5],[1,0.5]];portConstraint=eastwest;strokeColor=inherit;fontSize=16;" vertex="1" parent="x249CVGgQLwnqaqQMpfh-101">
          <mxGeometry y="150" width="131.3472" height="30" as="geometry" />
        </mxCell>
        <mxCell id="x249CVGgQLwnqaqQMpfh-210" style="shape=partialRectangle;html=1;whiteSpace=wrap;connectable=0;fillColor=none;top=0;left=0;bottom=0;right=0;overflow=hidden;strokeColor=inherit;fontSize=16;" vertex="1" parent="x249CVGgQLwnqaqQMpfh-209">
          <mxGeometry width="14" height="30" as="geometry">
            <mxRectangle width="14" height="30" as="alternateBounds" />
          </mxGeometry>
        </mxCell>
        <mxCell id="x249CVGgQLwnqaqQMpfh-211" value="phone" style="shape=partialRectangle;html=1;whiteSpace=wrap;connectable=0;fillColor=none;top=0;left=0;bottom=0;right=0;align=left;spacingLeft=6;overflow=hidden;strokeColor=inherit;fontSize=16;" vertex="1" parent="x249CVGgQLwnqaqQMpfh-209">
          <mxGeometry x="14" width="117" height="30" as="geometry">
            <mxRectangle width="117" height="30" as="alternateBounds" />
          </mxGeometry>
        </mxCell>
        <mxCell id="x249CVGgQLwnqaqQMpfh-152" value="order_history" style="shape=table;startSize=30;container=1;collapsible=0;childLayout=tableLayout;fixedRows=1;rowLines=0;fontStyle=1;strokeColor=default;fontSize=16;" vertex="1" parent="x249CVGgQLwnqaqQMpfh-274">
          <mxGeometry x="1574.1024" y="1128.67" width="240.8064" height="181.33" as="geometry" />
        </mxCell>
        <mxCell id="x249CVGgQLwnqaqQMpfh-153" value="" style="shape=tableRow;horizontal=0;startSize=0;swimlaneHead=0;swimlaneBody=0;top=0;left=0;bottom=0;right=0;collapsible=0;dropTarget=0;fillColor=none;points=[[0,0.5],[1,0.5]];portConstraint=eastwest;strokeColor=inherit;fontSize=16;" vertex="1" parent="x249CVGgQLwnqaqQMpfh-152">
          <mxGeometry y="30" width="240.8064" height="30" as="geometry" />
        </mxCell>
        <mxCell id="x249CVGgQLwnqaqQMpfh-154" value="" style="shape=partialRectangle;html=1;whiteSpace=wrap;connectable=0;fillColor=none;top=0;left=0;bottom=0;right=0;overflow=hidden;pointerEvents=1;strokeColor=inherit;fontSize=16;" vertex="1" parent="x249CVGgQLwnqaqQMpfh-153">
          <mxGeometry width="23" height="30" as="geometry">
            <mxRectangle width="23" height="30" as="alternateBounds" />
          </mxGeometry>
        </mxCell>
        <mxCell id="x249CVGgQLwnqaqQMpfh-155" value="history_id &lt;b&gt;(PK)&lt;/b&gt;" style="shape=partialRectangle;html=1;whiteSpace=wrap;connectable=0;fillColor=none;top=0;left=0;bottom=0;right=0;align=left;spacingLeft=6;overflow=hidden;strokeColor=inherit;fontSize=16;" vertex="1" parent="x249CVGgQLwnqaqQMpfh-153">
          <mxGeometry x="23" width="218" height="30" as="geometry">
            <mxRectangle width="218" height="30" as="alternateBounds" />
          </mxGeometry>
        </mxCell>
        <mxCell id="x249CVGgQLwnqaqQMpfh-156" value="" style="shape=tableRow;horizontal=0;startSize=0;swimlaneHead=0;swimlaneBody=0;top=0;left=0;bottom=0;right=0;collapsible=0;dropTarget=0;fillColor=none;points=[[0,0.5],[1,0.5]];portConstraint=eastwest;strokeColor=inherit;fontSize=16;" vertex="1" parent="x249CVGgQLwnqaqQMpfh-152">
          <mxGeometry y="60" width="240.8064" height="41" as="geometry" />
        </mxCell>
        <mxCell id="x249CVGgQLwnqaqQMpfh-157" value="" style="shape=partialRectangle;html=1;whiteSpace=wrap;connectable=0;fillColor=none;top=0;left=0;bottom=0;right=0;overflow=hidden;strokeColor=inherit;fontSize=16;" vertex="1" parent="x249CVGgQLwnqaqQMpfh-156">
          <mxGeometry width="23" height="41" as="geometry">
            <mxRectangle width="23" height="41" as="alternateBounds" />
          </mxGeometry>
        </mxCell>
        <mxCell id="x249CVGgQLwnqaqQMpfh-158" value="order_id&amp;nbsp;&lt;b&gt;(FK, cust_order(order_id))&lt;/b&gt;" style="shape=partialRectangle;html=1;whiteSpace=wrap;connectable=0;fillColor=none;top=0;left=0;bottom=0;right=0;align=left;spacingLeft=6;overflow=hidden;strokeColor=inherit;fontSize=16;" vertex="1" parent="x249CVGgQLwnqaqQMpfh-156">
          <mxGeometry x="23" width="218" height="41" as="geometry">
            <mxRectangle width="218" height="41" as="alternateBounds" />
          </mxGeometry>
        </mxCell>
        <mxCell id="x249CVGgQLwnqaqQMpfh-159" value="" style="shape=tableRow;horizontal=0;startSize=0;swimlaneHead=0;swimlaneBody=0;top=0;left=0;bottom=0;right=0;collapsible=0;dropTarget=0;fillColor=none;points=[[0,0.5],[1,0.5]];portConstraint=eastwest;strokeColor=inherit;fontSize=16;" vertex="1" parent="x249CVGgQLwnqaqQMpfh-152">
          <mxGeometry y="101" width="240.8064" height="50" as="geometry" />
        </mxCell>
        <mxCell id="x249CVGgQLwnqaqQMpfh-160" value="" style="shape=partialRectangle;html=1;whiteSpace=wrap;connectable=0;fillColor=none;top=0;left=0;bottom=0;right=0;overflow=hidden;strokeColor=inherit;fontSize=16;" vertex="1" parent="x249CVGgQLwnqaqQMpfh-159">
          <mxGeometry width="23" height="50" as="geometry">
            <mxRectangle width="23" height="50" as="alternateBounds" />
          </mxGeometry>
        </mxCell>
        <mxCell id="x249CVGgQLwnqaqQMpfh-161" value="status_id &lt;b&gt;(FK, (order_status_id))&lt;/b&gt;" style="shape=partialRectangle;html=1;whiteSpace=wrap;connectable=0;fillColor=none;top=0;left=0;bottom=0;right=0;align=left;spacingLeft=6;overflow=hidden;strokeColor=inherit;fontSize=16;" vertex="1" parent="x249CVGgQLwnqaqQMpfh-159">
          <mxGeometry x="23" width="218" height="50" as="geometry">
            <mxRectangle width="218" height="50" as="alternateBounds" />
          </mxGeometry>
        </mxCell>
        <mxCell id="x249CVGgQLwnqaqQMpfh-249" style="shape=tableRow;horizontal=0;startSize=0;swimlaneHead=0;swimlaneBody=0;top=0;left=0;bottom=0;right=0;collapsible=0;dropTarget=0;fillColor=none;points=[[0,0.5],[1,0.5]];portConstraint=eastwest;strokeColor=inherit;fontSize=16;" vertex="1" parent="x249CVGgQLwnqaqQMpfh-152">
          <mxGeometry y="151" width="240.8064" height="30" as="geometry" />
        </mxCell>
        <mxCell id="x249CVGgQLwnqaqQMpfh-250" style="shape=partialRectangle;html=1;whiteSpace=wrap;connectable=0;fillColor=none;top=0;left=0;bottom=0;right=0;overflow=hidden;strokeColor=inherit;fontSize=16;" vertex="1" parent="x249CVGgQLwnqaqQMpfh-249">
          <mxGeometry width="23" height="30" as="geometry">
            <mxRectangle width="23" height="30" as="alternateBounds" />
          </mxGeometry>
        </mxCell>
        <mxCell id="x249CVGgQLwnqaqQMpfh-251" value="status_date" style="shape=partialRectangle;html=1;whiteSpace=wrap;connectable=0;fillColor=none;top=0;left=0;bottom=0;right=0;align=left;spacingLeft=6;overflow=hidden;strokeColor=inherit;fontSize=16;" vertex="1" parent="x249CVGgQLwnqaqQMpfh-249">
          <mxGeometry x="23" width="218" height="30" as="geometry">
            <mxRectangle width="218" height="30" as="alternateBounds" />
          </mxGeometry>
        </mxCell>
        <mxCell id="x249CVGgQLwnqaqQMpfh-162" value="cust_order" style="shape=table;startSize=30;container=1;collapsible=0;childLayout=tableLayout;fixedRows=1;rowLines=0;fontStyle=1;strokeColor=default;fontSize=16;" vertex="1" parent="x249CVGgQLwnqaqQMpfh-274">
          <mxGeometry x="1123.7856" y="732.99" width="307.6896" height="347.01" as="geometry" />
        </mxCell>
        <mxCell id="x249CVGgQLwnqaqQMpfh-163" value="" style="shape=tableRow;horizontal=0;startSize=0;swimlaneHead=0;swimlaneBody=0;top=0;left=0;bottom=0;right=0;collapsible=0;dropTarget=0;fillColor=none;points=[[0,0.5],[1,0.5]];portConstraint=eastwest;strokeColor=inherit;fontSize=16;" vertex="1" parent="x249CVGgQLwnqaqQMpfh-162">
          <mxGeometry y="30" width="307.6896" height="30" as="geometry" />
        </mxCell>
        <mxCell id="x249CVGgQLwnqaqQMpfh-164" value="" style="shape=partialRectangle;html=1;whiteSpace=wrap;connectable=0;fillColor=none;top=0;left=0;bottom=0;right=0;overflow=hidden;pointerEvents=1;strokeColor=inherit;fontSize=16;" vertex="1" parent="x249CVGgQLwnqaqQMpfh-163">
          <mxGeometry width="13" height="30" as="geometry">
            <mxRectangle width="13" height="30" as="alternateBounds" />
          </mxGeometry>
        </mxCell>
        <mxCell id="x249CVGgQLwnqaqQMpfh-165" value="order_id &lt;b&gt;(PK)&lt;/b&gt;" style="shape=partialRectangle;html=1;whiteSpace=wrap;connectable=0;fillColor=none;top=0;left=0;bottom=0;right=0;align=left;spacingLeft=6;overflow=hidden;strokeColor=inherit;fontSize=16;" vertex="1" parent="x249CVGgQLwnqaqQMpfh-163">
          <mxGeometry x="13" width="295" height="30" as="geometry">
            <mxRectangle width="295" height="30" as="alternateBounds" />
          </mxGeometry>
        </mxCell>
        <mxCell id="x249CVGgQLwnqaqQMpfh-243" style="shape=tableRow;horizontal=0;startSize=0;swimlaneHead=0;swimlaneBody=0;top=0;left=0;bottom=0;right=0;collapsible=0;dropTarget=0;fillColor=none;points=[[0,0.5],[1,0.5]];portConstraint=eastwest;strokeColor=inherit;fontSize=16;" vertex="1" parent="x249CVGgQLwnqaqQMpfh-162">
          <mxGeometry y="60" width="307.6896" height="50" as="geometry" />
        </mxCell>
        <mxCell id="x249CVGgQLwnqaqQMpfh-244" style="shape=partialRectangle;html=1;whiteSpace=wrap;connectable=0;fillColor=none;top=0;left=0;bottom=0;right=0;overflow=hidden;pointerEvents=1;strokeColor=inherit;fontSize=16;" vertex="1" parent="x249CVGgQLwnqaqQMpfh-243">
          <mxGeometry width="13" height="50" as="geometry">
            <mxRectangle width="13" height="50" as="alternateBounds" />
          </mxGeometry>
        </mxCell>
        <mxCell id="x249CVGgQLwnqaqQMpfh-245" value="customer_id &lt;b&gt;(FK, customer(customer_id))&lt;/b&gt;" style="shape=partialRectangle;html=1;whiteSpace=wrap;connectable=0;fillColor=none;top=0;left=0;bottom=0;right=0;align=left;spacingLeft=6;overflow=hidden;strokeColor=inherit;fontSize=16;" vertex="1" parent="x249CVGgQLwnqaqQMpfh-243">
          <mxGeometry x="13" width="295" height="50" as="geometry">
            <mxRectangle width="295" height="50" as="alternateBounds" />
          </mxGeometry>
        </mxCell>
        <mxCell id="x249CVGgQLwnqaqQMpfh-240" style="shape=tableRow;horizontal=0;startSize=0;swimlaneHead=0;swimlaneBody=0;top=0;left=0;bottom=0;right=0;collapsible=0;dropTarget=0;fillColor=none;points=[[0,0.5],[1,0.5]];portConstraint=eastwest;strokeColor=inherit;fontSize=16;" vertex="1" parent="x249CVGgQLwnqaqQMpfh-162">
          <mxGeometry y="110" width="307.6896" height="30" as="geometry" />
        </mxCell>
        <mxCell id="x249CVGgQLwnqaqQMpfh-241" style="shape=partialRectangle;html=1;whiteSpace=wrap;connectable=0;fillColor=none;top=0;left=0;bottom=0;right=0;overflow=hidden;pointerEvents=1;strokeColor=inherit;fontSize=16;" vertex="1" parent="x249CVGgQLwnqaqQMpfh-240">
          <mxGeometry width="13" height="30" as="geometry">
            <mxRectangle width="13" height="30" as="alternateBounds" />
          </mxGeometry>
        </mxCell>
        <mxCell id="x249CVGgQLwnqaqQMpfh-242" value="order_date" style="shape=partialRectangle;html=1;whiteSpace=wrap;connectable=0;fillColor=none;top=0;left=0;bottom=0;right=0;align=left;spacingLeft=6;overflow=hidden;strokeColor=inherit;fontSize=16;" vertex="1" parent="x249CVGgQLwnqaqQMpfh-240">
          <mxGeometry x="13" width="295" height="30" as="geometry">
            <mxRectangle width="295" height="30" as="alternateBounds" />
          </mxGeometry>
        </mxCell>
        <mxCell id="x249CVGgQLwnqaqQMpfh-237" style="shape=tableRow;horizontal=0;startSize=0;swimlaneHead=0;swimlaneBody=0;top=0;left=0;bottom=0;right=0;collapsible=0;dropTarget=0;fillColor=none;points=[[0,0.5],[1,0.5]];portConstraint=eastwest;strokeColor=inherit;fontSize=16;" vertex="1" parent="x249CVGgQLwnqaqQMpfh-162">
          <mxGeometry y="140" width="307.6896" height="50" as="geometry" />
        </mxCell>
        <mxCell id="x249CVGgQLwnqaqQMpfh-238" style="shape=partialRectangle;html=1;whiteSpace=wrap;connectable=0;fillColor=none;top=0;left=0;bottom=0;right=0;overflow=hidden;pointerEvents=1;strokeColor=inherit;fontSize=16;" vertex="1" parent="x249CVGgQLwnqaqQMpfh-237">
          <mxGeometry width="13" height="50" as="geometry">
            <mxRectangle width="13" height="50" as="alternateBounds" />
          </mxGeometry>
        </mxCell>
        <mxCell id="x249CVGgQLwnqaqQMpfh-239" value="shipping_method_id&lt;div&gt;&lt;b&gt;(FK,shipping_method(shipping_method_id))&lt;/b&gt;&lt;/div&gt;" style="shape=partialRectangle;html=1;whiteSpace=wrap;connectable=0;fillColor=none;top=0;left=0;bottom=0;right=0;align=left;spacingLeft=6;overflow=hidden;strokeColor=inherit;fontSize=16;" vertex="1" parent="x249CVGgQLwnqaqQMpfh-237">
          <mxGeometry x="13" width="295" height="50" as="geometry">
            <mxRectangle width="295" height="50" as="alternateBounds" />
          </mxGeometry>
        </mxCell>
        <mxCell id="x249CVGgQLwnqaqQMpfh-234" style="shape=tableRow;horizontal=0;startSize=0;swimlaneHead=0;swimlaneBody=0;top=0;left=0;bottom=0;right=0;collapsible=0;dropTarget=0;fillColor=none;points=[[0,0.5],[1,0.5]];portConstraint=eastwest;strokeColor=inherit;fontSize=16;" vertex="1" parent="x249CVGgQLwnqaqQMpfh-162">
          <mxGeometry y="190" width="307.6896" height="47" as="geometry" />
        </mxCell>
        <mxCell id="x249CVGgQLwnqaqQMpfh-235" style="shape=partialRectangle;html=1;whiteSpace=wrap;connectable=0;fillColor=none;top=0;left=0;bottom=0;right=0;overflow=hidden;pointerEvents=1;strokeColor=inherit;fontSize=16;" vertex="1" parent="x249CVGgQLwnqaqQMpfh-234">
          <mxGeometry width="13" height="47" as="geometry">
            <mxRectangle width="13" height="47" as="alternateBounds" />
          </mxGeometry>
        </mxCell>
        <mxCell id="x249CVGgQLwnqaqQMpfh-236" value="order_status_id &lt;b&gt;(FK, order_status(order_status_id))&lt;/b&gt;" style="shape=partialRectangle;html=1;whiteSpace=wrap;connectable=0;fillColor=none;top=0;left=0;bottom=0;right=0;align=left;spacingLeft=6;overflow=hidden;strokeColor=inherit;fontSize=16;" vertex="1" parent="x249CVGgQLwnqaqQMpfh-234">
          <mxGeometry x="13" width="295" height="47" as="geometry">
            <mxRectangle width="295" height="47" as="alternateBounds" />
          </mxGeometry>
        </mxCell>
        <mxCell id="x249CVGgQLwnqaqQMpfh-166" value="" style="shape=tableRow;horizontal=0;startSize=0;swimlaneHead=0;swimlaneBody=0;top=0;left=0;bottom=0;right=0;collapsible=0;dropTarget=0;fillColor=none;points=[[0,0.5],[1,0.5]];portConstraint=eastwest;strokeColor=inherit;fontSize=16;" vertex="1" parent="x249CVGgQLwnqaqQMpfh-162">
          <mxGeometry y="237" width="307.6896" height="60" as="geometry" />
        </mxCell>
        <mxCell id="x249CVGgQLwnqaqQMpfh-167" value="" style="shape=partialRectangle;html=1;whiteSpace=wrap;connectable=0;fillColor=none;top=0;left=0;bottom=0;right=0;overflow=hidden;strokeColor=inherit;fontSize=16;" vertex="1" parent="x249CVGgQLwnqaqQMpfh-166">
          <mxGeometry width="13" height="60" as="geometry">
            <mxRectangle width="13" height="60" as="alternateBounds" />
          </mxGeometry>
        </mxCell>
        <mxCell id="x249CVGgQLwnqaqQMpfh-168" value="shipping_address_id &lt;b&gt;(FK,address(address_id))&lt;/b&gt;" style="shape=partialRectangle;html=1;whiteSpace=wrap;connectable=0;fillColor=none;top=0;left=0;bottom=0;right=0;align=left;spacingLeft=6;overflow=hidden;strokeColor=inherit;fontSize=16;" vertex="1" parent="x249CVGgQLwnqaqQMpfh-166">
          <mxGeometry x="13" width="295" height="60" as="geometry">
            <mxRectangle width="295" height="60" as="alternateBounds" />
          </mxGeometry>
        </mxCell>
        <mxCell id="x249CVGgQLwnqaqQMpfh-169" value="" style="shape=tableRow;horizontal=0;startSize=0;swimlaneHead=0;swimlaneBody=0;top=0;left=0;bottom=0;right=0;collapsible=0;dropTarget=0;fillColor=none;points=[[0,0.5],[1,0.5]];portConstraint=eastwest;strokeColor=inherit;fontSize=16;" vertex="1" parent="x249CVGgQLwnqaqQMpfh-162">
          <mxGeometry y="297" width="307.6896" height="50" as="geometry" />
        </mxCell>
        <mxCell id="x249CVGgQLwnqaqQMpfh-170" value="" style="shape=partialRectangle;html=1;whiteSpace=wrap;connectable=0;fillColor=none;top=0;left=0;bottom=0;right=0;overflow=hidden;strokeColor=inherit;fontSize=16;" vertex="1" parent="x249CVGgQLwnqaqQMpfh-169">
          <mxGeometry width="13" height="50" as="geometry">
            <mxRectangle width="13" height="50" as="alternateBounds" />
          </mxGeometry>
        </mxCell>
        <mxCell id="x249CVGgQLwnqaqQMpfh-171" value="billing_address_id &lt;b&gt;(FK, address(address_id))&lt;/b&gt;" style="shape=partialRectangle;html=1;whiteSpace=wrap;connectable=0;fillColor=none;top=0;left=0;bottom=0;right=0;align=left;spacingLeft=6;overflow=hidden;strokeColor=inherit;fontSize=16;" vertex="1" parent="x249CVGgQLwnqaqQMpfh-169">
          <mxGeometry x="13" width="295" height="50" as="geometry">
            <mxRectangle width="295" height="50" as="alternateBounds" />
          </mxGeometry>
        </mxCell>
        <mxCell id="x249CVGgQLwnqaqQMpfh-253" style="edgeStyle=orthogonalEdgeStyle;rounded=0;orthogonalLoop=1;jettySize=auto;html=1;entryX=0.01;entryY=0.795;entryDx=0;entryDy=0;entryPerimeter=0;" edge="1" parent="x249CVGgQLwnqaqQMpfh-274" source="x249CVGgQLwnqaqQMpfh-82" target="x249CVGgQLwnqaqQMpfh-68">
          <mxGeometry relative="1" as="geometry" />
        </mxCell>
        <mxCell id="x249CVGgQLwnqaqQMpfh-172" value="order_line" style="shape=table;startSize=30;container=1;collapsible=0;childLayout=tableLayout;fixedRows=1;rowLines=0;fontStyle=1;strokeColor=default;fontSize=16;" vertex="1" parent="x249CVGgQLwnqaqQMpfh-274">
          <mxGeometry x="1610.41" y="97.73" width="226.22" height="182.26999999999998" as="geometry" />
        </mxCell>
        <mxCell id="x249CVGgQLwnqaqQMpfh-173" value="" style="shape=tableRow;horizontal=0;startSize=0;swimlaneHead=0;swimlaneBody=0;top=0;left=0;bottom=0;right=0;collapsible=0;dropTarget=0;fillColor=none;points=[[0,0.5],[1,0.5]];portConstraint=eastwest;strokeColor=inherit;fontSize=16;" vertex="1" parent="x249CVGgQLwnqaqQMpfh-172">
          <mxGeometry y="30" width="226.22" height="45" as="geometry" />
        </mxCell>
        <mxCell id="x249CVGgQLwnqaqQMpfh-174" value="" style="shape=partialRectangle;html=1;whiteSpace=wrap;connectable=0;fillColor=none;top=0;left=0;bottom=0;right=0;overflow=hidden;pointerEvents=1;strokeColor=inherit;fontSize=16;" vertex="1" parent="x249CVGgQLwnqaqQMpfh-173">
          <mxGeometry width="24" height="45" as="geometry">
            <mxRectangle width="24" height="45" as="alternateBounds" />
          </mxGeometry>
        </mxCell>
        <mxCell id="x249CVGgQLwnqaqQMpfh-175" value="order_id &lt;b&gt;(FK, cust_order(order_id))&lt;/b&gt;" style="shape=partialRectangle;html=1;whiteSpace=wrap;connectable=0;fillColor=none;top=0;left=0;bottom=0;right=0;align=left;spacingLeft=6;overflow=hidden;strokeColor=inherit;fontSize=16;" vertex="1" parent="x249CVGgQLwnqaqQMpfh-173">
          <mxGeometry x="24" width="202" height="45" as="geometry">
            <mxRectangle width="202" height="45" as="alternateBounds" />
          </mxGeometry>
        </mxCell>
        <mxCell id="x249CVGgQLwnqaqQMpfh-246" style="shape=tableRow;horizontal=0;startSize=0;swimlaneHead=0;swimlaneBody=0;top=0;left=0;bottom=0;right=0;collapsible=0;dropTarget=0;fillColor=none;points=[[0,0.5],[1,0.5]];portConstraint=eastwest;strokeColor=inherit;fontSize=16;" vertex="1" parent="x249CVGgQLwnqaqQMpfh-172">
          <mxGeometry y="75" width="226.22" height="47" as="geometry" />
        </mxCell>
        <mxCell id="x249CVGgQLwnqaqQMpfh-247" style="shape=partialRectangle;html=1;whiteSpace=wrap;connectable=0;fillColor=none;top=0;left=0;bottom=0;right=0;overflow=hidden;pointerEvents=1;strokeColor=inherit;fontSize=16;" vertex="1" parent="x249CVGgQLwnqaqQMpfh-246">
          <mxGeometry width="24" height="47" as="geometry">
            <mxRectangle width="24" height="47" as="alternateBounds" />
          </mxGeometry>
        </mxCell>
        <mxCell id="x249CVGgQLwnqaqQMpfh-248" value="book_id&lt;b&gt;&amp;nbsp;(Fk, book(book_id))&lt;/b&gt;" style="shape=partialRectangle;html=1;whiteSpace=wrap;connectable=0;fillColor=none;top=0;left=0;bottom=0;right=0;align=left;spacingLeft=6;overflow=hidden;strokeColor=inherit;fontSize=16;" vertex="1" parent="x249CVGgQLwnqaqQMpfh-246">
          <mxGeometry x="24" width="202" height="47" as="geometry">
            <mxRectangle width="202" height="47" as="alternateBounds" />
          </mxGeometry>
        </mxCell>
        <mxCell id="x249CVGgQLwnqaqQMpfh-176" value="" style="shape=tableRow;horizontal=0;startSize=0;swimlaneHead=0;swimlaneBody=0;top=0;left=0;bottom=0;right=0;collapsible=0;dropTarget=0;fillColor=none;points=[[0,0.5],[1,0.5]];portConstraint=eastwest;strokeColor=inherit;fontSize=16;" vertex="1" parent="x249CVGgQLwnqaqQMpfh-172">
          <mxGeometry y="122" width="226.22" height="30" as="geometry" />
        </mxCell>
        <mxCell id="x249CVGgQLwnqaqQMpfh-177" value="" style="shape=partialRectangle;html=1;whiteSpace=wrap;connectable=0;fillColor=none;top=0;left=0;bottom=0;right=0;overflow=hidden;strokeColor=inherit;fontSize=16;" vertex="1" parent="x249CVGgQLwnqaqQMpfh-176">
          <mxGeometry width="24" height="30" as="geometry">
            <mxRectangle width="24" height="30" as="alternateBounds" />
          </mxGeometry>
        </mxCell>
        <mxCell id="x249CVGgQLwnqaqQMpfh-178" value="quantity" style="shape=partialRectangle;html=1;whiteSpace=wrap;connectable=0;fillColor=none;top=0;left=0;bottom=0;right=0;align=left;spacingLeft=6;overflow=hidden;strokeColor=inherit;fontSize=16;" vertex="1" parent="x249CVGgQLwnqaqQMpfh-176">
          <mxGeometry x="24" width="202" height="30" as="geometry">
            <mxRectangle width="202" height="30" as="alternateBounds" />
          </mxGeometry>
        </mxCell>
        <mxCell id="x249CVGgQLwnqaqQMpfh-179" value="" style="shape=tableRow;horizontal=0;startSize=0;swimlaneHead=0;swimlaneBody=0;top=0;left=0;bottom=0;right=0;collapsible=0;dropTarget=0;fillColor=none;points=[[0,0.5],[1,0.5]];portConstraint=eastwest;strokeColor=inherit;fontSize=16;" vertex="1" parent="x249CVGgQLwnqaqQMpfh-172">
          <mxGeometry y="152" width="226.22" height="30" as="geometry" />
        </mxCell>
        <mxCell id="x249CVGgQLwnqaqQMpfh-180" value="" style="shape=partialRectangle;html=1;whiteSpace=wrap;connectable=0;fillColor=none;top=0;left=0;bottom=0;right=0;overflow=hidden;strokeColor=inherit;fontSize=16;" vertex="1" parent="x249CVGgQLwnqaqQMpfh-179">
          <mxGeometry width="24" height="30" as="geometry">
            <mxRectangle width="24" height="30" as="alternateBounds" />
          </mxGeometry>
        </mxCell>
        <mxCell id="x249CVGgQLwnqaqQMpfh-181" value="price_at_order_time" style="shape=partialRectangle;html=1;whiteSpace=wrap;connectable=0;fillColor=none;top=0;left=0;bottom=0;right=0;align=left;spacingLeft=6;overflow=hidden;strokeColor=inherit;fontSize=16;" vertex="1" parent="x249CVGgQLwnqaqQMpfh-179">
          <mxGeometry x="24" width="202" height="30" as="geometry">
            <mxRectangle width="202" height="30" as="alternateBounds" />
          </mxGeometry>
        </mxCell>
        <mxCell id="x249CVGgQLwnqaqQMpfh-254" style="edgeStyle=orthogonalEdgeStyle;rounded=0;orthogonalLoop=1;jettySize=auto;html=1;entryX=0;entryY=0.5;entryDx=0;entryDy=0;" edge="1" parent="x249CVGgQLwnqaqQMpfh-274" source="x249CVGgQLwnqaqQMpfh-92" target="x249CVGgQLwnqaqQMpfh-65">
          <mxGeometry relative="1" as="geometry" />
        </mxCell>
        <mxCell id="x249CVGgQLwnqaqQMpfh-255" style="edgeStyle=orthogonalEdgeStyle;rounded=0;orthogonalLoop=1;jettySize=auto;html=1;entryX=0;entryY=0.5;entryDx=0;entryDy=0;" edge="1" parent="x249CVGgQLwnqaqQMpfh-274" source="x249CVGgQLwnqaqQMpfh-102" target="x249CVGgQLwnqaqQMpfh-62">
          <mxGeometry relative="1" as="geometry" />
        </mxCell>
        <mxCell id="x249CVGgQLwnqaqQMpfh-257" style="edgeStyle=orthogonalEdgeStyle;rounded=0;orthogonalLoop=1;jettySize=auto;html=1;entryX=0;entryY=0.5;entryDx=0;entryDy=0;" edge="1" parent="x249CVGgQLwnqaqQMpfh-274" source="x249CVGgQLwnqaqQMpfh-72" target="x249CVGgQLwnqaqQMpfh-200">
          <mxGeometry relative="1" as="geometry" />
        </mxCell>
        <mxCell id="x249CVGgQLwnqaqQMpfh-258" style="edgeStyle=orthogonalEdgeStyle;rounded=0;orthogonalLoop=1;jettySize=auto;html=1;entryX=0;entryY=0.5;entryDx=0;entryDy=0;" edge="1" parent="x249CVGgQLwnqaqQMpfh-274" source="x249CVGgQLwnqaqQMpfh-2" target="x249CVGgQLwnqaqQMpfh-22">
          <mxGeometry relative="1" as="geometry" />
        </mxCell>
        <mxCell id="x249CVGgQLwnqaqQMpfh-259" style="edgeStyle=orthogonalEdgeStyle;rounded=0;orthogonalLoop=1;jettySize=auto;html=1;entryX=0;entryY=0.5;entryDx=0;entryDy=0;" edge="1" parent="x249CVGgQLwnqaqQMpfh-274" source="x249CVGgQLwnqaqQMpfh-12" target="x249CVGgQLwnqaqQMpfh-25">
          <mxGeometry relative="1" as="geometry" />
        </mxCell>
        <mxCell id="x249CVGgQLwnqaqQMpfh-260" style="edgeStyle=orthogonalEdgeStyle;rounded=0;orthogonalLoop=1;jettySize=auto;html=1;entryX=0;entryY=0.5;entryDx=0;entryDy=0;" edge="1" parent="x249CVGgQLwnqaqQMpfh-274" source="x249CVGgQLwnqaqQMpfh-31" target="x249CVGgQLwnqaqQMpfh-243">
          <mxGeometry relative="1" as="geometry" />
        </mxCell>
        <mxCell id="x249CVGgQLwnqaqQMpfh-261" style="edgeStyle=orthogonalEdgeStyle;rounded=0;orthogonalLoop=1;jettySize=auto;html=1;entryX=0;entryY=0.5;entryDx=0;entryDy=0;" edge="1" parent="x249CVGgQLwnqaqQMpfh-274" source="x249CVGgQLwnqaqQMpfh-32" target="x249CVGgQLwnqaqQMpfh-237">
          <mxGeometry relative="1" as="geometry" />
        </mxCell>
        <mxCell id="x249CVGgQLwnqaqQMpfh-262" style="edgeStyle=orthogonalEdgeStyle;rounded=0;orthogonalLoop=1;jettySize=auto;html=1;entryX=1;entryY=0.5;entryDx=0;entryDy=0;" edge="1" parent="x249CVGgQLwnqaqQMpfh-274" source="x249CVGgQLwnqaqQMpfh-113" target="x249CVGgQLwnqaqQMpfh-234">
          <mxGeometry relative="1" as="geometry" />
        </mxCell>
        <mxCell id="x249CVGgQLwnqaqQMpfh-263" style="edgeStyle=orthogonalEdgeStyle;rounded=0;orthogonalLoop=1;jettySize=auto;html=1;entryX=0;entryY=0.5;entryDx=0;entryDy=0;" edge="1" parent="x249CVGgQLwnqaqQMpfh-274" source="x249CVGgQLwnqaqQMpfh-92" target="x249CVGgQLwnqaqQMpfh-169">
          <mxGeometry relative="1" as="geometry" />
        </mxCell>
        <mxCell id="x249CVGgQLwnqaqQMpfh-264" style="edgeStyle=orthogonalEdgeStyle;rounded=0;orthogonalLoop=1;jettySize=auto;html=1;entryX=0;entryY=0.5;entryDx=0;entryDy=0;" edge="1" parent="x249CVGgQLwnqaqQMpfh-274" source="x249CVGgQLwnqaqQMpfh-92" target="x249CVGgQLwnqaqQMpfh-166">
          <mxGeometry relative="1" as="geometry" />
        </mxCell>
        <mxCell id="x249CVGgQLwnqaqQMpfh-265" style="edgeStyle=orthogonalEdgeStyle;rounded=0;orthogonalLoop=1;jettySize=auto;html=1;exitX=0;exitY=0.5;exitDx=0;exitDy=0;entryX=0;entryY=0.5;entryDx=0;entryDy=0;" edge="1" parent="x249CVGgQLwnqaqQMpfh-274" source="x249CVGgQLwnqaqQMpfh-163" target="x249CVGgQLwnqaqQMpfh-156">
          <mxGeometry relative="1" as="geometry" />
        </mxCell>
        <mxCell id="x249CVGgQLwnqaqQMpfh-266" style="edgeStyle=orthogonalEdgeStyle;rounded=0;orthogonalLoop=1;jettySize=auto;html=1;entryX=0;entryY=0.5;entryDx=0;entryDy=0;" edge="1" parent="x249CVGgQLwnqaqQMpfh-274" source="x249CVGgQLwnqaqQMpfh-113" target="x249CVGgQLwnqaqQMpfh-159">
          <mxGeometry relative="1" as="geometry">
            <mxPoint x="861.0810810810812" y="1377.7600000000002" as="targetPoint" />
          </mxGeometry>
        </mxCell>
        <mxCell id="x249CVGgQLwnqaqQMpfh-267" style="edgeStyle=orthogonalEdgeStyle;rounded=0;orthogonalLoop=1;jettySize=auto;html=1;entryX=0;entryY=0.5;entryDx=0;entryDy=0;" edge="1" parent="x249CVGgQLwnqaqQMpfh-274" source="x249CVGgQLwnqaqQMpfh-42" target="x249CVGgQLwnqaqQMpfh-225">
          <mxGeometry relative="1" as="geometry" />
        </mxCell>
        <mxCell id="x249CVGgQLwnqaqQMpfh-268" style="edgeStyle=orthogonalEdgeStyle;rounded=0;orthogonalLoop=1;jettySize=auto;html=1;entryX=0;entryY=0.5;entryDx=0;entryDy=0;" edge="1" parent="x249CVGgQLwnqaqQMpfh-274" source="x249CVGgQLwnqaqQMpfh-52" target="x249CVGgQLwnqaqQMpfh-228">
          <mxGeometry relative="1" as="geometry" />
        </mxCell>
        <mxCell id="x249CVGgQLwnqaqQMpfh-270" style="edgeStyle=orthogonalEdgeStyle;rounded=0;orthogonalLoop=1;jettySize=auto;html=1;" edge="1" parent="x249CVGgQLwnqaqQMpfh-274" source="x249CVGgQLwnqaqQMpfh-12" target="x249CVGgQLwnqaqQMpfh-246">
          <mxGeometry relative="1" as="geometry" />
        </mxCell>
        <mxCell id="x249CVGgQLwnqaqQMpfh-271" style="edgeStyle=orthogonalEdgeStyle;rounded=0;orthogonalLoop=1;jettySize=auto;html=1;entryX=1;entryY=0.5;entryDx=0;entryDy=0;" edge="1" parent="x249CVGgQLwnqaqQMpfh-274" source="x249CVGgQLwnqaqQMpfh-113" target="x249CVGgQLwnqaqQMpfh-173">
          <mxGeometry relative="1" as="geometry" />
        </mxCell>
        <mxCell id="x249CVGgQLwnqaqQMpfh-273" value="" style="edgeStyle=orthogonalEdgeStyle;rounded=0;orthogonalLoop=1;jettySize=auto;html=1;entryX=0;entryY=0.5;entryDx=0;entryDy=0;" edge="1" parent="x249CVGgQLwnqaqQMpfh-274" source="x249CVGgQLwnqaqQMpfh-102" target="x249CVGgQLwnqaqQMpfh-31">
          <mxGeometry relative="1" as="geometry">
            <mxPoint x="291.89189189189193" y="859.5200000000002" as="sourcePoint" />
            <mxPoint x="1196.7567567567569" y="916.4000000000002" as="targetPoint" />
          </mxGeometry>
        </mxCell>
        <mxCell id="x249CVGgQLwnqaqQMpfh-31" value="shipping_method" style="shape=table;startSize=30;container=1;collapsible=0;childLayout=tableLayout;fixedRows=1;rowLines=0;fontStyle=1;strokeColor=default;fontSize=16;" vertex="1" parent="x249CVGgQLwnqaqQMpfh-274">
          <mxGeometry x="511.2419126819127" y="704.9080412371135" width="226.21621621621628" height="195.4639175257732" as="geometry" />
        </mxCell>
        <mxCell id="x249CVGgQLwnqaqQMpfh-32" value="" style="shape=tableRow;horizontal=0;startSize=0;swimlaneHead=0;swimlaneBody=0;top=0;left=0;bottom=0;right=0;collapsible=0;dropTarget=0;fillColor=none;points=[[0,0.5],[1,0.5]];portConstraint=eastwest;strokeColor=inherit;fontSize=16;" vertex="1" parent="x249CVGgQLwnqaqQMpfh-31">
          <mxGeometry y="30" width="226.21621621621628" height="30" as="geometry" />
        </mxCell>
        <mxCell id="x249CVGgQLwnqaqQMpfh-33" value="" style="shape=partialRectangle;html=1;whiteSpace=wrap;connectable=0;fillColor=none;top=0;left=0;bottom=0;right=0;overflow=hidden;pointerEvents=1;strokeColor=inherit;fontSize=16;" vertex="1" parent="x249CVGgQLwnqaqQMpfh-32">
          <mxGeometry width="14" height="30" as="geometry">
            <mxRectangle width="14" height="30" as="alternateBounds" />
          </mxGeometry>
        </mxCell>
        <mxCell id="x249CVGgQLwnqaqQMpfh-34" value="shipping_method_id &lt;b&gt;(PK)&lt;/b&gt;" style="shape=partialRectangle;html=1;whiteSpace=wrap;connectable=0;fillColor=none;top=0;left=0;bottom=0;right=0;align=left;spacingLeft=6;overflow=hidden;strokeColor=inherit;fontSize=16;" vertex="1" parent="x249CVGgQLwnqaqQMpfh-32">
          <mxGeometry x="14" width="212" height="30" as="geometry">
            <mxRectangle width="212" height="30" as="alternateBounds" />
          </mxGeometry>
        </mxCell>
        <mxCell id="x249CVGgQLwnqaqQMpfh-35" value="" style="shape=tableRow;horizontal=0;startSize=0;swimlaneHead=0;swimlaneBody=0;top=0;left=0;bottom=0;right=0;collapsible=0;dropTarget=0;fillColor=none;points=[[0,0.5],[1,0.5]];portConstraint=eastwest;strokeColor=inherit;fontSize=16;" vertex="1" parent="x249CVGgQLwnqaqQMpfh-31">
          <mxGeometry y="60" width="226.21621621621628" height="30" as="geometry" />
        </mxCell>
        <mxCell id="x249CVGgQLwnqaqQMpfh-36" value="" style="shape=partialRectangle;html=1;whiteSpace=wrap;connectable=0;fillColor=none;top=0;left=0;bottom=0;right=0;overflow=hidden;strokeColor=inherit;fontSize=16;" vertex="1" parent="x249CVGgQLwnqaqQMpfh-35">
          <mxGeometry width="14" height="30" as="geometry">
            <mxRectangle width="14" height="30" as="alternateBounds" />
          </mxGeometry>
        </mxCell>
        <mxCell id="x249CVGgQLwnqaqQMpfh-37" value="method_name" style="shape=partialRectangle;html=1;whiteSpace=wrap;connectable=0;fillColor=none;top=0;left=0;bottom=0;right=0;align=left;spacingLeft=6;overflow=hidden;strokeColor=inherit;fontSize=16;" vertex="1" parent="x249CVGgQLwnqaqQMpfh-35">
          <mxGeometry x="14" width="212" height="30" as="geometry">
            <mxRectangle width="212" height="30" as="alternateBounds" />
          </mxGeometry>
        </mxCell>
        <mxCell id="x249CVGgQLwnqaqQMpfh-38" value="" style="shape=tableRow;horizontal=0;startSize=0;swimlaneHead=0;swimlaneBody=0;top=0;left=0;bottom=0;right=0;collapsible=0;dropTarget=0;fillColor=none;points=[[0,0.5],[1,0.5]];portConstraint=eastwest;strokeColor=inherit;fontSize=16;" vertex="1" parent="x249CVGgQLwnqaqQMpfh-31">
          <mxGeometry y="90" width="226.21621621621628" height="30" as="geometry" />
        </mxCell>
        <mxCell id="x249CVGgQLwnqaqQMpfh-39" value="" style="shape=partialRectangle;html=1;whiteSpace=wrap;connectable=0;fillColor=none;top=0;left=0;bottom=0;right=0;overflow=hidden;strokeColor=inherit;fontSize=16;" vertex="1" parent="x249CVGgQLwnqaqQMpfh-38">
          <mxGeometry width="14" height="30" as="geometry">
            <mxRectangle width="14" height="30" as="alternateBounds" />
          </mxGeometry>
        </mxCell>
        <mxCell id="x249CVGgQLwnqaqQMpfh-40" value="shipping_cost" style="shape=partialRectangle;html=1;whiteSpace=wrap;connectable=0;fillColor=none;top=0;left=0;bottom=0;right=0;align=left;spacingLeft=6;overflow=hidden;strokeColor=inherit;fontSize=16;" vertex="1" parent="x249CVGgQLwnqaqQMpfh-38">
          <mxGeometry x="14" width="212" height="30" as="geometry">
            <mxRectangle width="212" height="30" as="alternateBounds" />
          </mxGeometry>
        </mxCell>
        <mxCell id="x249CVGgQLwnqaqQMpfh-112" value="order_status" style="shape=table;startSize=30;container=1;collapsible=0;childLayout=tableLayout;fixedRows=1;rowLines=0;fontStyle=1;strokeColor=default;fontSize=16;" vertex="1" parent="x249CVGgQLwnqaqQMpfh-274">
          <mxGeometry x="1584.8544" y="801.4" width="230.0544" height="90" as="geometry" />
        </mxCell>
        <mxCell id="x249CVGgQLwnqaqQMpfh-113" value="" style="shape=tableRow;horizontal=0;startSize=0;swimlaneHead=0;swimlaneBody=0;top=0;left=0;bottom=0;right=0;collapsible=0;dropTarget=0;fillColor=none;points=[[0,0.5],[1,0.5]];portConstraint=eastwest;strokeColor=inherit;fontSize=16;" vertex="1" parent="x249CVGgQLwnqaqQMpfh-112">
          <mxGeometry y="30" width="230.0544" height="30" as="geometry" />
        </mxCell>
        <mxCell id="x249CVGgQLwnqaqQMpfh-114" value="" style="shape=partialRectangle;html=1;whiteSpace=wrap;connectable=0;fillColor=none;top=0;left=0;bottom=0;right=0;overflow=hidden;pointerEvents=1;strokeColor=inherit;fontSize=16;" vertex="1" parent="x249CVGgQLwnqaqQMpfh-113">
          <mxGeometry width="25" height="30" as="geometry">
            <mxRectangle width="25" height="30" as="alternateBounds" />
          </mxGeometry>
        </mxCell>
        <mxCell id="x249CVGgQLwnqaqQMpfh-115" value="order_status_id&lt;b&gt;(PK)&lt;/b&gt;&lt;span style=&quot;white-space: pre;&quot;&gt;&#x9;&lt;/span&gt;" style="shape=partialRectangle;html=1;whiteSpace=wrap;connectable=0;fillColor=none;top=0;left=0;bottom=0;right=0;align=left;spacingLeft=6;overflow=hidden;strokeColor=inherit;fontSize=16;" vertex="1" parent="x249CVGgQLwnqaqQMpfh-113">
          <mxGeometry x="25" width="205" height="30" as="geometry">
            <mxRectangle width="205" height="30" as="alternateBounds" />
          </mxGeometry>
        </mxCell>
        <mxCell id="x249CVGgQLwnqaqQMpfh-116" value="" style="shape=tableRow;horizontal=0;startSize=0;swimlaneHead=0;swimlaneBody=0;top=0;left=0;bottom=0;right=0;collapsible=0;dropTarget=0;fillColor=none;points=[[0,0.5],[1,0.5]];portConstraint=eastwest;strokeColor=inherit;fontSize=16;" vertex="1" parent="x249CVGgQLwnqaqQMpfh-112">
          <mxGeometry y="60" width="230.0544" height="30" as="geometry" />
        </mxCell>
        <mxCell id="x249CVGgQLwnqaqQMpfh-117" value="" style="shape=partialRectangle;html=1;whiteSpace=wrap;connectable=0;fillColor=none;top=0;left=0;bottom=0;right=0;overflow=hidden;strokeColor=inherit;fontSize=16;" vertex="1" parent="x249CVGgQLwnqaqQMpfh-116">
          <mxGeometry width="25" height="30" as="geometry">
            <mxRectangle width="25" height="30" as="alternateBounds" />
          </mxGeometry>
        </mxCell>
        <mxCell id="x249CVGgQLwnqaqQMpfh-118" value="status_name" style="shape=partialRectangle;html=1;whiteSpace=wrap;connectable=0;fillColor=none;top=0;left=0;bottom=0;right=0;align=left;spacingLeft=6;overflow=hidden;strokeColor=inherit;fontSize=16;" vertex="1" parent="x249CVGgQLwnqaqQMpfh-116">
          <mxGeometry x="25" width="205" height="30" as="geometry">
            <mxRectangle width="205" height="30" as="alternateBounds" />
          </mxGeometry>
        </mxCell>
      </root>
    </mxGraphModel>
  </diagram>
</mxfile>
